<?xml version="1.0" encoding="UTF-8" standalone="no"?>
<!-- Created with Inkscape (http://www.inkscape.org/) -->
<svg xmlns:inkscape="http://www.inkscape.org/namespaces/inkscape" xmlns:rdf="http://www.w3.org/1999/02/22-rdf-syntax-ns#" xmlns="http://www.w3.org/2000/svg" xmlns:xlink="http://www.w3.org/1999/xlink" xmlns:ns1="http://sozi.baierouge.fr" xmlns:cc="http://creativecommons.org/ns#" xmlns:sodipodi="http://sodipodi.sourceforge.net/DTD/sodipodi-0.dtd" xmlns:dc="http://purl.org/dc/elements/1.1/" id="svg2" xml:space="preserve" viewBox="0 0 77.8 48.049" version="1.1" inkscape:version="0.91 r13725">
  <g id="g10" transform="matrix(1.25 0 0 -1.25 0 48.049)">
    <g id="g12">
      <path id="path14" style="fill-rule:evenodd;fill:#63412f" d="m61.441 36.638 0.079 0.039c0.027-1.144 0.148-2.878 0.359-5.199 0.16-1.758 0.242-2.945 0.242-3.558-0.242-0.293-0.519-0.719-0.844-1.282-0.316-0.558-0.476-0.933-0.476-1.121 0-0.238 0.011-0.636 0.039-1.199 0-0.48-0.067-0.734-0.199-0.758l-0.282-0.199c-0.054-0.027-0.093-0.027-0.121 0 0.082-0.187 0.2-0.453 0.36-0.801 0.293-0.508 0.441-1.121 0.441-1.84l0.121 0.2c0.028 0.425 0.028 0.8 0 1.121 0.266-0.055 0.586-0.149 0.961-0.281 0-1.625-0.027-2.668-0.082-3.122-0.586-0.105-0.879-0.211-0.879-0.32l-0.32 0.281c-0.215-0.668-0.535-1.254-0.961-1.761-0.133-0.184-0.574-0.614-1.32-1.278-0.747 0.692-1.121 1.278-1.121 1.758l0.761 1.723c0.16 0.105 0.239 0.238 0.239 0.398v0.16l0.562 1.282c0 0.48-0.066 0.918-0.199 1.32v-0.363c-0.055-0.504-0.176-0.879-0.363-1.118-0.317-0.402-0.879-0.601-1.68-0.601-0.266 0-0.481 0.027-0.637 0.082l-0.082 0.117c0.508-1.547 0.547-2.48 0.121-2.801-0.617-0.504-0.933-0.957-0.961-1.359l-0.48-0.52c-0.961 0.375-1.442 1.442-1.442 3.2 0 0.242 0.11 0.695 0.321 1.363 0.132 0.664 0.199 1.117 0.199 1.359-0.188 0.266-0.399 0.598-0.641 1-0.504 0.774-0.89 1.559-1.16 2.36l0.121-1.282c0-0.48-0.066-0.984-0.199-1.519l-1.199-0.918-0.68 0.039c0.215-0.586 0.52-0.934 0.922-1.039 0.266-0.082 0.73-0.137 1.398-0.16 0-1.574 0.149-2.668 0.442-3.281 0.265-0.668 0.398-1.083 0.398-1.243 0-0.293-0.078-0.531-0.238-0.718-0.109-0.133-0.16-0.215-0.16-0.239h-0.602c0.746-0.855 1.121-1.386 1.121-1.601 0-0.321-0.043-0.559-0.121-0.719-0.187-0.133-0.32-0.254-0.398-0.359l-0.281-0.161c-0.293-0.187-0.961-0.507-2-0.96-0.961-0.399-1.481-0.602-1.559-0.602-0.508 0.027-0.922 0.066-1.242 0.121-0.16 0.051-0.305 0.106-0.438 0.16l-0.203 0.078c-0.238 0.133-0.359 0.309-0.359 0.52l0.043 0.68c0.636 0.027 1.105 0.16 1.398 0.402 0.399 0.293 0.602 0.824 0.602 1.598l-0.082 1.043c0.054 0.425 0.265 1.183 0.64 2.277 0.453 1.176 0.813 1.894 1.078 2.16l-0.757-0.199c-0.375-0.348-0.735-0.961-1.082-1.84-0.239-0.719-0.36-1.254-0.36-1.598-0.453-0.64-1.078-1.136-1.879-1.48-0.613-0.27-1.175-0.403-1.679-0.403-0.375 0-0.852 0.106-1.442 0.321l0.16-0.16c0.375-2.719-0.132-4.852-1.519-6.399-0.106 4.801-0.215 8.52-0.32 11.16l-0.04 2.879 0.598 4.559v0.48c0 0.055-0.012 0.11-0.039 0.16-0.051 0.083-0.078 0.133-0.078 0.161 0.133-0.028 0.293-0.039 0.48-0.039 0.907-0.028 1.747 0.265 2.52 0.878 0.664 0.536 1.094 1.094 1.277 1.68 0.242-0.344 0.254-0.746 0.043-1.199l0.797 0.519-0.879-0.597-0.879-0.68c0.348-0.508 0.575-1.109 0.68-1.801 0.105-0.668 0.641-1.695 1.602-3.082 0.183-0.371 0.371-0.586 0.558-0.64 0.028 0.215 0.039 0.457 0.039 0.722 0 1.012 0.188 2.227 0.563 3.641 0.265 1.172 0.437 1.812 0.519 1.918l-1.562-0.879c0 0.719 0.176 1.426 0.519 2.121l-0.679-0.363c-0.106 0.109-0.254 0.215-0.438 0.32-0.266 0.16-0.641 0.254-1.121 0.281-0.16 0.055-0.453 0.106-0.879 0.161-0.348 0.05-0.883 0.265-1.601 0.64l0.199 0.078c2.215-0.105 4.066-0.304 5.562-0.597 0.16-0.082 0.531-0.309 1.117-0.68 0.508-0.348 0.829-0.563 0.961-0.641l0.161 0.918 0.039 0.883 0.082 0.078c0.105 0.348 0.187 0.614 0.238 0.801l0.262 0.16-0.442-0.262-0.14-0.058-0.118-0.078c-0.187 0.344-0.414 0.558-0.679 0.636h-0.321c0-0.636 0.024-1.011 0.079-1.117l-0.122-0.082-0.476-0.238c0.156 0.426 0.211 0.746 0.156 0.961-0.156 0-0.316 0.023-0.476 0.078-0.161 0.082-0.254 0.148-0.282 0.199 0.078 0.082 0.215 0.199 0.399 0.36 0.453 0.32 1.215 0.746 2.281 1.281s2.039 0.922 2.922 1.16c0.476 0.133 0.918 0.238 1.316 0.32l-0.16-0.359c0.055-0.105 0.11-0.16 0.16-0.16 0.082 0.055 0.149 0.027 0.2-0.082 0.347-0.399 0.628-0.957 0.839-1.68 0.188-0.558 0.282-1.023 0.282-1.398 0-0.907-0.184-1.547-0.559-1.922-0.375-0.399-0.559-0.746-0.559-1.039 0-0.028 0.266-0.348 0.797-0.961 0.59-0.719 0.989-1.387 1.203-2l0.039 0.64c0.082 0.426-0.066 0.829-0.441 1.2-0.48 0.48-0.758 0.828-0.84 1.043l0.442 0.597c0.214-0.453 0.386-0.933 0.519-1.437 0.078-0.215 0.227-0.387 0.442-0.524-0.028 0.16-0.149 0.403-0.364 0.723-0.211 0.32-0.316 0.613-0.316 0.879 0 0.293 0.066 0.719 0.199 1.281 0.211 0.746 0.371 1.344 0.481 1.801l-0.442-1.043c-0.027 0.402 0.012 0.828 0.117 1.281 0.11 0.481 0.282 0.774 0.524 0.879 0.211 0.133 0.398 0.043 0.558-0.277 0.188-0.321 0.309-0.828 0.36-1.524l-0.039-1c0-0.476 0.015-0.797 0.043-0.957 0.078 0.078 0.144 0.184 0.199 0.321 0 1.066-0.067 1.664-0.199 1.796 0 0.723-0.161 1.364-0.485 1.922-0.343 0.508-0.519 0.879-0.519 1.121 0 0.293 0.066 0.625 0.203 1 0.105 0.266 0.156 0.415 0.156 0.438 1.254 0.535 1.961 0.961 2.121 1.281l0.242 0.199zm-5.043-2.039h1.364l0.16 0.078 0.039 0.883 1.039 0.039-0.32-0.601-0.121-0.078-0.321-0.121h0.043l-0.16-0.039-0.359-0.161-1.203-0.519 0.519 0.238-0.68 0.281zm0.282-10.519c-0.133 0.16-0.293 0.254-0.481 0.281l-0.199 0.039c-0.238-0.265-0.453-0.613-0.641-1.039l-0.238-0.48c0-0.321 0.039-0.547 0.117-0.68 0.028-0.055 0.121-0.16 0.282-0.32 0.027 0.933 0.105 1.492 0.242 1.679 0.16 0.133 0.465 0.305 0.918 0.52zm-3.84 5.758-1.121-0.84c0.535-3.145 0.894-4.957 1.082-5.438 0.16-0.402 0.48-0.734 0.961-1l0.078 0.278c-0.051 0.429-0.281 1.281-0.68 2.562-0.293 0.906-0.398 2.387-0.32 4.438zm1.558-8.957c-0.343-0.403-0.519-0.922-0.519-1.563l0.082-1.758v0.2c0 0.507 0.148 1.027 0.441 1.558 0.211 0.426 0.211 0.949-0.004 1.563zm5.641 1.32 0.039-1c-0.078-0.457-0.223-0.977-0.437-1.563-0.215-0.586-0.403-0.961-0.563-1.121l0.16-0.039c0.774 0.75 1.16 1.266 1.16 1.563 0 0.32-0.05 0.613-0.16 0.879-0.078 0.375-0.144 0.8-0.199 1.281zm-14.598-3.203-0.64 0.519c-1.176-0.05-1.762-1-1.762-2.84 0-0.746 0.121-1.171 0.359-1.277l0.122 0.078c0.16 0.856 0.519 1.68 1.082 2.481 0.265 0.426 0.543 0.773 0.839 1.039zm-3.363-15.84-0.039 2.082 0.039-0.68v-1.402zm16.203 14.723-0.242-0.282c0.242 0.028 0.481 0.215 0.723 0.559-0.137 0-0.297-0.094-0.481-0.277zm-5.32-2.602c-1.789-0.719-3-1.519-3.641-2.398-0.375-0.774-0.679-1.27-0.922-1.481 0.11 0 0.227 0.067 0.364 0.199 1.199 1.332 2.597 2.559 4.199 3.68z" inkscape:connector-curvature="0"/>
      <path id="path16" style="fill-rule:evenodd;fill:#7a4a3c" d="m0.398 9.24v-0.199c-0.023-0.215-0.05-0.43-0.078-0.641 0 0.266 0.028 0.547 0.078 0.84zm27.122-0.762c-1.04 0-1.68 0.11-1.918 0.321 0-0.426 0.117-0.907 0.359-1.438l-0.723-1.402-0.199-0.121c-0.184-0.024-0.707-0.024-1.559 0-0.8 0.054-1.375 0.054-1.718 0l0.359-0.2c-0.32 0-0.586 0.243-0.801 0.723-0.054 0.106-0.093 0.211-0.121 0.316 0.106 0.375 0.254 0.735 0.442 1.083 0.32 0.507 0.707 0.757 1.16 0.757 0.265 0 0.812 0.121 1.64 0.36l-0.043 0.121c0.215 0.719 0.387 1.336 0.524 1.84 0.023-0.239 0.117-0.438 0.277-0.598 0.215-0.215 0.453-0.32 0.723-0.32 0.266 0 0.492 0.105 0.68 0.32 0.238 0.211 0.359 0.48 0.359 0.801 0 0.293-0.121 0.543-0.359 0.758-0.188 0.214-0.414 0.32-0.68 0.32-0.27 0-0.508-0.106-0.723-0.32 0.242 0.961 0.36 1.718 0.36 2.281-0.774-0.403-1.504-1.055-2.2-1.961-0.718-0.934-1.16-1.442-1.32-1.52 0.266 0.532 0.309 1.078 0.121 1.641-0.238 0.504-0.375 0.824-0.398 0.961l-0.043 0.039-0.278 0.641c0.028-1.227-0.054-2.11-0.242-2.641-0.398-0.426-0.758-0.695-1.078-0.801-0.16-0.054-0.547-0.094-1.16-0.121l-0.68 0.199-0.679 0.082c-0.161 0.106-0.282 0.321-0.364 0.641-0.023 0.293-0.023 0.559 0 0.801h-0.597c-0.348-0.055-1.133-0.364-2.36-0.922-1.176-0.531-1.906-0.801-2.203-0.801-0.238 0-0.586 0.094-1.039 0.281-0.426 0.161-0.691 0.266-0.801 0.321 0.321 1.386 0.481 2.308 0.481 2.757-0.024 0.883-0.371 1.508-1.039 1.883 0.082-0.133 0.148-0.414 0.199-0.84 0.055-0.375 0.055-0.679 0-0.921l-0.359 1.32c-0.239-1.332-0.426-2.106-0.559-2.32-0.242-0.532-0.613-0.895-1.121-1.079-0.266-0.109-0.559-0.175-0.879-0.203h-0.32c-0.536 0-0.946 0.082-1.243 0.243-0.398 0.375-0.824 0.734-1.277 1.078v-0.36c0.106-0.32 0.277-0.625 0.52-0.918l0.121-0.281v-0.078c-0.723 0-1.336 0.105-1.84 0.316-0.535 0.215-0.801 0.481-0.801 0.801-0.055 0.586-0.082 1.121-0.082 1.602 0 1.414-0.051 2.347-0.16 2.8l-0.117-0.32-0.403-2.48-0.398 0.16c0.266 0.64 0.305 1 0.117 1.078-0.266 0.16-0.398 0.586-0.398 1.281 0 0.106 0.121 0.254 0.359 0.442 0.215 0.183 0.481 0.371 0.801 0.558l-0.32 1-0.161-0.16c-0.238-0.32-0.425-0.535-0.558-0.641 0 0.454-0.039 0.895-0.121 1.321-0.133 0.453-0.2 0.773-0.2 0.961 0 0.238 0.067 0.613 0.2 1.121 0.16 0.531 0.242 0.933 0.242 1.199l-0.16-0.039c-0.055-0.027-0.203-0.242-0.442-0.641v1.239c0.055 0.453 0.188 1.187 0.399 2.199 0.215 0.988 0.386 1.707 0.519 2.16 0.242-0.426 0.457-0.852 0.641-1.277l-0.117-2.52c0-0.48 0.183-0.801 0.558-0.961l0.078 0.199c-0.371 1.973-0.144 3.641 0.68 5 3.469-0.293 5.442-0.453 5.922-0.48 0.215-0.32 0.586-1.039 1.121-2.16 0.481-1.067 0.785-1.746 0.918-2.039 0 1.359 0.027 2.652 0.082 3.879l-0.043 0.019c0.637-0.117 1.223-0.211 1.762-0.277-0.172 0.027-0.305 0.062-0.399 0.097 1.254-0.054 3.266 0.403 6.039 1.36 2.825 0.961 4.493 1.789 5 2.48-0.402 0.453-0.734 0.75-1 0.883-0.48 0.238-1.054 0.305-1.718 0.199h-0.481c-3.066 0.559-4.789 0.84-5.16 0.84l-0.281 0.199c0.535 0.371 1.828 0.828 3.879 1.36 2.402 0.64 4.496 0.961 6.281 0.961 0.055 0 0.547 0.066 1.48 0.199 0.934-0.027 1.442-0.414 1.52-1.16-0.535-0.16-1.027-0.332-1.48-0.52l0.082 0.238c1.066 0.297 0.703 0.458-1.082 0.481l-0.36 0.043c-1.894 0.023-2.972-0.043-3.238-0.203-0.242-0.293-0.656-0.571-1.242-0.84l-0.2-0.199c0.239-0.133 0.598-0.266 1.079-0.399 0.562-0.187 0.972-0.281 1.242-0.281 0.613 0 1.238 0.16 1.879 0.481 0.082 0.054 0.175 0.093 0.281 0.121h0.199c0.051 0.027 0.121 0.05 0.199 0.078-0.8-0.508-1.171-1.266-1.121-2.282l1.321-0.878c-0.774-0.747-1.547-1.36-2.321-1.84-1.465-0.934-2.851-1.121-4.16-0.559 0-0.105-0.078-0.308-0.238-0.601 0.027-0.266 0.105-0.426 0.238-0.481 0.16-0.051 0.574-0.094 1.242-0.117 1.172-0.508 1.879-0.84 2.121-1 0.532-0.402 0.797-1 0.797-1.801-0.265-0.133-0.531-0.293-0.797-0.48-0.586-0.321-0.894-0.961-0.921-1.922l-0.079-3.16c0-0.477 0.211-0.918 0.637-1.321l0.043 0.844c0 0.024 0.16 0.316 0.481 0.879 0.105 0.211 0.16 0.453 0.16 0.719-0.055 0.48-0.082 0.961-0.082 1.441 0.265 0.399 0.574 0.758 0.922 1.078 0.398 0.106 0.906 0.199 1.519 0.282 0 0.558 0.238 1.281 0.719 2.16 0.508 0.961 1.094 1.64 1.762 2.039l-1.922 0.039-0.641 0.043 9.199-0.242c0.828-0.188 1.641-0.934 2.442-2.239 0.695-1.066 1.039-1.734 1.039-2 0-0.242-0.106-0.64-0.321-1.199-0.183-0.59-0.277-1-0.277-1.242 0-0.238 0.453-0.535 1.359-0.879 0.375-0.453 0.813-0.934 1.321-1.441l-0.039 0.242-1.082 1.957c0.027 0.508 0.199 1.015 0.519 1.519 0.321 0.481 0.481 0.895 0.481 1.243 0 0.214-0.106 0.613-0.321 1.199-0.214 0.586-0.304 1.039-0.281 1.359l-0.359-0.437c0.027 0.027 0.176 0.293 0.441 0.796 0.16 0.297 0.172 0.27 0.039-0.078 0.16 0.293 0.254 0.614 0.281 0.961l1.079-0.199c0.746 0.531 1.187 0.863 1.32 1 0.027 0.024 0.094 0.078 0.199 0.156v-0.476l-0.598-4.563 0.04-2.879-0.2 0.039c0.055-0.664 0.067-1.398 0.039-2.199-0.027-0.879-0.105-1.48-0.238-1.801l-0.402 0.122c-0.239 0.292-0.371 0.679-0.399 1.16 0-0.321-0.105-0.625-0.32-0.922-0.293-0.321-0.453-0.504-0.48-0.559-0.774-0.187-1.84-0.359-3.2-0.519h-0.961c0.403-0.348 1.266-0.707 2.602-1.082l-0.039-0.438v-0.039l-0.723-0.723c-0.344-0.238-0.719-0.359-1.121-0.359-0.746 0-1.57 0.359-2.476 1.082 0.078-0.269 0.16-0.48 0.238-0.641 0.187-0.214 0.48-0.441 0.879-0.679 0.508-0.27 0.867-0.496 1.082-0.68l-1.403-0.961c-0.343 0.027-0.89 0.039-1.636 0.039l-1.684 0.121 0.043 0.641c0.051 0.293 0.426 0.824 1.117 1.598 0.696 0.8 1.094 1.414 1.203 1.839l0.637 1.122c-1.277-0.801-2.039-1.266-2.277-1.399-0.242-0.137-0.656-0.203-1.242-0.203-0.559 0-1.039 0.176-1.438 0.519-0.613 0.59-1.121 0.977-1.519 1.161l-0.243 0.043 0.039-0.243c0.188-0.851 0.442-1.519 0.762-2 0.188-0.293 0.281-0.757 0.281-1.398 0-0.988-0.043-1.602-0.121-1.84l-0.8-0.922zm-9.801 28.602 0.281 0.238l0.238 0.199 0.043-0.039c0.641-0.16 1.531-0.277 2.68-0.359 0.641-0.055 1.531-0.094 2.68-0.121 0-0.051 0.199-0.227 0.597-0.52l-1.797-0.078-2.921-0.039c-0.348 0-0.708 0.012-1.079 0.039-0.562 0.051-0.855 0.117-0.882 0.199v0.039l0.16 0.442zm19.48 1c-0.32-0.16-0.851-0.387-1.597-0.68-0.801-0.293-1.282-0.441-1.442-0.441-0.426 0-0.773 0.027-1.039 0.082-0.133 0.078-0.254 0.211-0.359 0.398 0.316 0.535 0.918 0.867 1.797 1 0.695-0.027 1.574-0.144 2.64-0.359zm12.242-0.801c-0.961-0.398-1.668-0.852-2.121-1.359h-8.679c0.531 0.132 1.679 0.187 3.437 0.16 1.442 0.16 2.094 0.812 1.961 1.961h0.199c0.535-0.028 1.11-0.094 1.723-0.203-0.082-0.078-0.16-0.172-0.242-0.278-0.106-0.187-0.172-0.359-0.199-0.519 0.082-0.215 0.132-0.348 0.16-0.403 0.082-0.132 0.265-0.199 0.558-0.199 0.215 0 0.457 0.039 0.723 0.121 0.504 0.16 0.961 0.426 1.359 0.801l0.239-0.043c0.586 0 0.882-0.012 0.882-0.039zm6.957-2.68h-0.16c-0.398-0.082-0.84-0.187-1.316-0.32-0.082 0.16-0.176 0.32-0.281 0.481 0.48-0.106 1.05 0.027 1.718 0.398 0.563 0.32 0.879 0.586 0.961 0.801 0.078 0.215 0.16 0.48 0.239 0.801-0.934-0.454-2.039-0.774-3.321-0.961-0.824-0.133-1.531-0.2-2.117-0.2-0.613 0-1.16 0.2-1.641 0.602 0.215 0.16 0.348 0.25 0.399 0.277 0.242 0.106 1.016 0.387 2.32 0.84 3.387-0.078 6.133-0.293 8.242-0.641v-0.039l-0.242-0.199c-0.105-0.105-0.547-0.375-1.32-0.801-0.719-0.398-1.117-0.613-1.199-0.64l0.32 0.601-1.039-0.039-0.039-0.883-0.16-0.078h-1.364zm-3.16 1.762c0.16-0.082 0.348-0.121 0.563-0.121 0.211 0 0.398 0.039 0.558 0.121 0.188 0.078 0.282 0.156 0.282 0.238 0 0.106-0.094 0.2-0.282 0.282-0.16 0.05-0.347 0.078-0.558 0.078-0.215 0-0.403-0.028-0.563-0.078-0.183-0.082-0.277-0.176-0.277-0.282 0-0.082 0.094-0.16 0.277-0.238zm-2.238-2.402c-0.559-0.051-0.973-0.012-1.238 0.121 0.636 0.215 1.293 0.32 1.957 0.32l0.801 0.039c-0.426-0.293-0.934-0.453-1.52-0.48zm-7.281-3.442c-0.344 0-0.52-0.011-0.52-0.039l0.281-0.039c-0.507-0.187-1.335-0.414-2.48-0.679-1.281-0.293-2.039-0.442-2.281-0.442-1.278 0-2.598 0.266-3.957 0.801-1.922 0.746-3.254 1.215-4 1.398l-0.364 0.16c1.547 0.215 3.243 0.43 5.082 0.641 3.415 0.402 5.786 0.602 7.122 0.602 0.636 0 1.039-0.215 1.199-0.641 0.078-0.371 0.304-0.559 0.679-0.559 0.079 0 0.415 0.211 1 0.641 0.215 0 0.598-0.094 1.161-0.281 0.504-0.188 0.867-0.281 1.078-0.281 0.722 0 1.386 0.015 2 0.039-0.184-0.161-0.321-0.278-0.399-0.36 0.028-0.051 0.121-0.117 0.282-0.199 0.16-0.051 0.32-0.078 0.476-0.078 0.055-0.215 0-0.535-0.156-0.961l-0.641-0.32c-1.496 0.293-3.347 0.492-5.562 0.597zm2.281-0.879 0.238-0.277c-0.183-0.59-0.613-1.148-1.277-1.684-0.773-0.613-1.613-0.906-2.52-0.878 0.293 0.293 0.774 0.734 1.438 1.32 0.082-0.215 0.121-0.078 0.121 0.398 0 0.348-0.281 0.59-0.84 0.723-0.613 0.105-0.949 0.199-1 0.277 0.078 0.082 0.188 0.203 0.32 0.364 0.215 0.16 0.559 0.347 1.04 0.558 0.718-0.375 1.253-0.586 1.601-0.64 0.426-0.055 0.719-0.106 0.879-0.161zm-5.359 2.762c-0.215 0-0.746-0.16-1.602-0.48-1.066-0.426-1.707-0.668-1.918-0.719 0.481-0.297 1.348-0.414 2.598-0.363 1.093 0.027 1.906 0.16 2.441 0.402l0.078 0.238c-0.613 0.614-1.144 0.922-1.597 0.922zm1.121-4.359c0.16 0.183 0.25 0.32 0.277 0.398s0.094 0.238 0.199 0.481c0.11-0.375 0.067-0.614-0.117-0.719-0.094-0.059-0.215-0.113-0.359-0.16zm0.238 1c-0.078-0.028-0.414-0.16-1-0.403-0.348-0.132-0.52-0.277-0.52-0.437l1.258-0.16c-0.367-0.11-0.894-0.16-1.578-0.16-0.265 0-0.519 0.027-0.762 0.078l-0.32 0.039c0.402 0.535 0.949 0.867 1.641 1 0.668 0.082 1.093 0.094 1.281 0.043zm-14.32-9.563c-0.028-0.051-0.094-0.144-0.2-0.277-0.214-0.43-0.386-1.121-0.519-2.082-0.188 0.32-0.563 0.574-1.121 0.762-0.32 0.05-0.625 0.078-0.918 0.078-0.055 0-0.574-0.282-1.563-0.84-1.066-0.613-1.984-1.16-2.757-1.641l0.796-0.117c0.161 0 1.414 0.145 3.762 0.438 0.985 0.132 1.559 0.293 1.719 0.48l0.082-0.602c0.105 0.43 0.547 1.149 1.32 2.161 0.879 1.175 1.547 1.761 2 1.761 0.239 0 0.692-0.121 1.36-0.359 0.586-0.215 0.879-0.309 0.879-0.281-0.106 0.242-0.442 0.48-1 0.718-0.293 0.137-0.614 0.243-0.961 0.321 1.363-0.133 2.296-0.664 2.8-1.598 0.375-0.723 0.547-1.64 0.52-2.762 0.082 0.536 0.121 1.039 0.121 1.52 0 1.254-0.266 2.309-0.801 3.16-0.558 0.563-0.84 0.867-0.84 0.922 0.028 0.055 0.215 0.305 0.563 0.758 0.344 0.48 0.465 0.933 0.359 1.363-0.883 0.184-2.027-0.226-3.441-1.242-1.387-0.984-2.188-1.918-2.399-2.801l0.239 0.16zm14.398-18.597v0.398l0.043-0.559-0.043 0.161zm-16.156 32.398c0.078 0.027 0.156 0.039 0.238 0.039-0.105-0.023-0.199-0.066-0.281-0.117 0.027 0.023 0.043 0.051 0.043 0.078zm-2.082-3.762c-0.746-0.078-1.32-0.277-1.719-0.597-0.348-0.375-0.574-0.602-0.68-0.68l0.039-0.16c0.079-0.082 0.254-0.121 0.52-0.121 0.559 0 0.945 0.121 1.16 0.359 0.106 0.082 0.266 0.414 0.481 1l0.199 0.199zm-6.32-3.078c0.242 0.028 0.402 0.078 0.48 0.16 0.055 0.078 0.133 0.2 0.238 0.36-0.879 0-1.316-0.078-1.316-0.239l0.078-0.121c0.105-0.082 0.281-0.132 0.52-0.16zm1.718-5.32-0.078 1.801c-0.828-4.082-1.801-6.254-2.922-6.52-0.293-0.082-0.797-0.027-1.519 0.16-0.719 0.188-1.305 0.211-1.758 0.078l0.84-0.039c0.851-0.16 1.414-0.332 1.679-0.519 0.215-0.106 0.692-0.586 1.442-1.442 0.105 1.122 0.531 2.133 1.277 3.039 0.696 0.856 1.039 2 1.039 3.442zm-2 1.16-0.519 0.238c-1.012 0.137-1.864-0.25-2.559-1.156-0.508-0.641-0.762-1.121-0.762-1.441 0-0.403 0.11-0.813 0.321-1.243 0.187 1.735 0.695 2.696 1.519 2.883 1.176 0.266 1.84 0.504 2 0.719zm12.121 1.238c0.028 0 0.188-0.105 0.481-0.316 0.426-0.16 0.906-0.066 1.441 0.277l-0.519 0.039-1.442 0.364 0.039-0.364zm-19.48 5.641c-0.852 0.16-1.504 0.242-1.957 0.242-0.508 0-0.934-0.199-1.281-0.601l-0.121-0.399c0.187-0.055 0.535-0.082 1.039-0.082 0.507 0.027 0.961 0.109 1.363 0.242l0.957 0.598zm-0.359-2.078c-0.321-0.242-0.454-0.227-0.399 0.039-3.281 0.801-4.48 1.453-3.601 1.961 0.906 0.504 1.453 0.758 1.64 0.758 0.238 0 0.918-0.078 2.039-0.239 1.336-0.16 2.723-0.238 4.16-0.238-1.171-0.109-2.011-0.348-2.519-0.723-0.348-0.48-0.613-0.824-0.801-1.039l-0.519-0.519zm-4.2-3.442-0.16 0.243c-0.668-0.137-1.199-0.547-1.601-1.243l0.679 0.282c0.668 0.265 1.028 0.507 1.082 0.718zm1.2 0.039c0 0.083-0.028 0.149-0.079 0.204-0.136 0.078-0.269 0.117-0.402 0.117-0.16 0-0.277-0.039-0.359-0.117-0.106-0.055-0.16-0.121-0.16-0.204 0-0.05 0.054-0.117 0.16-0.199 0.082-0.051 0.199-0.078 0.359-0.078 0.133 0 0.266 0.027 0.402 0.078 0.051 0.082 0.079 0.149 0.079 0.199zm-3.161-3.597c-0.187-0.082-0.281-0.215-0.281-0.403 0-0.16 0.094-0.292 0.281-0.398 0.188-0.105 0.426-0.16 0.719-0.16 0.27 0 0.508 0.055 0.723 0.16 0.187 0.106 0.277 0.238 0.277 0.398 0 0.188-0.09 0.321-0.277 0.403-0.215 0.133-0.453 0.199-0.723 0.199-0.293 0-0.531-0.066-0.719-0.199zm2.563-0.36c0.586-0.375 0.906-0.707 0.957-1-0.024-0.027-0.184-0.109-0.481-0.242-0.265-0.133-0.492-0.57-0.679-1.32 0.242-0.023 0.855-0.172 1.84-0.438 1.015-0.269 1.629-0.453 1.839-0.562-0.32 0.668-0.343 1.203-0.078 1.602 0.055 0.132 0.414 0.414 1.078 0.839 1.227 0.801 1.59 2.161 1.082 4.078l-0.199-0.359c-0.215-0.16-0.722-0.453-1.519-0.879-0.75-0.426-1.137-0.64-1.16-0.64-0.536 0-1.016 0.039-1.442 0.121-0.238 0.05-1.305 0.027-3.199-0.082 0.211-0.161 0.387-0.278 0.519-0.36 0.454-0.133 0.934-0.386 1.442-0.758zm3.957 3.918c-0.133 0.161-0.32 0.243-0.559 0.243-0.242 0-0.414-0.082-0.519-0.243-0.133-0.105-0.199-0.238-0.199-0.398 0-0.188 0.066-0.348 0.199-0.48 0.105-0.133 0.277-0.2 0.519-0.2 0.239 0 0.426 0.067 0.559 0.2 0.109 0.132 0.16 0.292 0.16 0.48 0 0.16-0.051 0.293-0.16 0.398zm5.762-0.558c-0.133-0.028-0.282-0.082-0.442-0.16-0.105-0.106-0.187-0.215-0.238-0.321 0.613-0.054 1.16 0.051 1.641 0.321l-0.961 0.16zm-6.68-7.719 0.039 0.277-1.398 0.442c-0.403 0.426-0.989 0.574-1.762 0.437-0.906-0.132-1.52-0.613-1.84-1.437 0.426 0.265 0.812 0.531 1.16 0.801 0.348 0.132 1.16 0.199 2.442 0.199 0.664-0.481 1.117-0.719 1.359-0.719zm4.238 0.277c-0.426 0-0.773-0.093-1.039-0.277-0.293-0.137-0.441-0.32-0.441-0.562 0-0.239 0.148-0.438 0.441-0.598 0.266-0.16 0.613-0.242 1.039-0.242 0.403 0 0.762 0.082 1.082 0.242 0.293 0.16 0.438 0.359 0.438 0.598 0 0.242-0.145 0.425-0.438 0.562-0.32 0.184-0.679 0.277-1.082 0.277zm-3.238-6.597c0.16 0.16 0.371 0.238 0.641 0.238 0.265 0 0.476-0.078 0.636-0.238 0.16-0.137 0.242-0.309 0.242-0.524 0-0.238-0.082-0.437-0.242-0.597-0.16-0.133-0.371-0.2-0.636-0.2-0.27 0-0.481 0.067-0.641 0.2-0.188 0.16-0.281 0.359-0.281 0.597 0 0.215 0.093 0.387 0.281 0.524zm3.879 3.797c-0.133 0-0.238-0.039-0.32-0.118-0.079-0.082-0.122-0.16-0.122-0.242 0-0.105 0.043-0.199 0.122-0.277 0.082-0.055 0.187-0.082 0.32-0.082s0.238 0.027 0.32 0.082c0.106 0.078 0.16 0.172 0.16 0.277 0 0.082-0.054 0.16-0.16 0.242-0.082 0.079-0.187 0.118-0.32 0.118zm12.879 0.64c-0.078 0.055-0.16 0.082-0.239 0.082-0.132 0-0.214-0.027-0.242-0.082-0.078-0.051-0.117-0.117-0.117-0.199 0-0.051 0.039-0.121 0.117-0.199 0.028-0.055 0.11-0.082 0.242-0.082 0.079 0 0.161 0.027 0.239 0.082 0.082 0.078 0.121 0.148 0.121 0.199 0 0.082-0.039 0.148-0.121 0.199zm-7.36-1.238c0.188 0.16 0.282 0.359 0.282 0.598 0 0.242-0.094 0.457-0.282 0.64-0.214 0.16-0.453 0.242-0.718 0.242-0.293 0-0.536-0.082-0.719-0.242-0.215-0.183-0.32-0.398-0.32-0.64 0-0.239 0.105-0.438 0.32-0.598 0.183-0.16 0.426-0.242 0.719-0.242 0.265 0 0.504 0.082 0.718 0.242zm4.762 2.758c-0.16 0.082-0.348 0.121-0.562 0.121-0.211 0-0.387-0.039-0.52-0.121-0.16-0.051-0.238-0.133-0.238-0.238 0-0.083 0.078-0.161 0.238-0.243 0.133-0.078 0.309-0.117 0.52-0.117 0.214 0 0.402 0.039 0.562 0.117 0.133 0.082 0.199 0.16 0.199 0.243 0 0.105-0.066 0.187-0.199 0.238z" inkscape:connector-curvature="0"/>
      <path id="path18" style="fill-rule:evenodd;fill:#8f5847" d="m0.961 14.08-0.52-0.082c0 2.773-0.043 5.281-0.121 7.519v0.043c0.239 0.399 0.387 0.614 0.442 0.641l0.16 0.039c0-0.266-0.082-0.668-0.242-1.199-0.133-0.508-0.2-0.883-0.2-1.121 0-0.188 0.067-0.508 0.2-0.961 0.082-0.426 0.121-0.867 0.121-1.321 0.133 0.106 0.32 0.321 0.558 0.641l0.161 0.16 0.32-1c-0.32-0.187-0.586-0.375-0.801-0.558-0.238-0.188-0.359-0.336-0.359-0.442 0-0.695 0.132-1.121 0.398-1.281 0.188-0.078 0.149-0.438-0.117-1.078zm14.16 14.597h-2.961v-1.117h2.961v1.117zm-0.281 3.922c-0.453 0.078-0.934 0.051-1.442-0.082-0.16-0.023-0.464-0.172-0.918-0.437 0.079-0.16 0.133-0.242 0.161-0.242 0.078-0.106 0.265-0.161 0.558-0.161 0.613 0 1.254 0.243 1.922 0.723 0.371 0 2.094-0.281 5.16-0.84-1.441 0.106-2.855-0.054-4.242-0.48-1.25-0.641-2.277-1.16-3.078-1.563 2.48-0.425 3.812-0.636 4-0.636 1.734 0 2.812 0.05 3.238 0.16 1.254 0.238 2.149 0.863 2.68 1.879l-2.117 0.64c0.664 0.106 1.238 0.039 1.718-0.199 0.266-0.137 0.598-0.43 1-0.883-0.507-0.691-2.175-1.519-5-2.48-2.773-0.957-4.785-1.414-6.039-1.36 0.094-0.035 0.227-0.07 0.399-0.097-0.539 0.066-1.125 0.16-1.762 0.277l-0.039 0.02-1 0.203-0.519 0.039 0.519 0.519c0.188 0.215 0.453 0.559 0.801 1.039 0.508 0.375 1.348 0.614 2.519 0.723-1.437 0-2.828 0.078-4.16 0.238-1.121 0.161-1.801 0.239-2.039 0.239-0.187 0-0.734-0.254-1.64-0.758-0.879-0.508 0.32-1.16 3.601-1.961h-0.121c-0.48 0.027-2.453 0.187-5.922 0.48l-1.199 0.078h-0.039l-0.602-0.519c-0.133-0.453-0.304-1.172-0.519-2.16-0.211-1.012-0.344-1.746-0.399-2.199v-0.641c-0.082 2.082-0.187 3.949-0.32 5.602l1 0.199c-0.746-0.051-0.762 0.16-0.039 0.64 0.344 0.266 0.879 0.641 1.598 1.121 0.109-0.269 0.214-0.496 0.32-0.679 2.375 1.918 5 3.465 7.883 4.636 2.16 0.883 3.691 1.321 4.597 1.321 2.696 0 5.469 0.094 8.321 0.281l-1.239 1.121 1.797 0.078c-0.398 0.293-0.597 0.469-0.597 0.52-1.149 0.027-2.039 0.066-2.68 0.121-1.149 0.082-2.039 0.199-2.68 0.359l0.117 0.199 0.602 0.442-0.039-0.078-0.563-0.364c0.883 0 3.122-0.023 6.723-0.078 3.438 0.028 5.84 0.266 7.199 0.719l-5 0.043 7.239 0.078c-0.879-0.133-1.481-0.465-1.797-1 0.105-0.187 0.226-0.32 0.359-0.398 0.266-0.055 0.613-0.082 1.039-0.082 0.16 0 0.641 0.148 1.442 0.441 0.746 0.293 1.277 0.52 1.597 0.68h0.641c-0.078-0.055-0.16-0.188-0.238-0.403l0.078-0.238c0.48 0 0.718-0.039 0.718-0.121-0.425-0.398-1.293-0.812-2.597-1.238-1.336-0.426-2.442-0.641-3.321-0.641l0.079-0.281c0.027 0 0.015-0.066-0.039-0.199-0.028-0.051 0.093-0.078 0.359-0.078 0.426 0 0.652-0.215 0.68-0.641-1.254-0.027-2.239-0.188-2.957-0.48-0.27-0.106-0.614-0.333-1.043-0.68 1.121-0.215 2.082-0.32 2.882-0.32h3.161c1.812 0.105 3.105 0.425 3.878 0.96-0.425 0.586-0.8 1-1.121 1.239-0.265 0.187-0.718 0.441-1.359 0.761 2.348 0.747 3.68 1.172 4 1.278 0.238 0.109 0.895 0.469 1.961 1.082l1.078-0.039c0.133-1.149-0.519-1.801-1.961-1.961-1.758 0.027-2.906-0.028-3.437-0.16h8.679c0.453 0.507 1.16 0.961 2.121 1.359 1.571 0 2.825 0.016 3.758 0.039-1.304-0.453-2.078-0.734-2.32-0.84-0.051-0.027-0.184-0.117-0.399-0.277 0.481-0.402 1.028-0.602 1.641-0.602 0.586 0 1.293 0.067 2.117 0.2 1.282 0.187 2.387 0.507 3.321 0.961-0.079-0.321-0.161-0.586-0.239-0.801-0.082-0.215-0.398-0.481-0.961-0.801-0.668-0.371-1.238-0.504-1.718-0.398 0.105-0.161 0.199-0.321 0.281-0.481-0.883-0.238-1.856-0.625-2.922-1.16s-1.828-0.961-2.281-1.281c-0.614-0.024-1.278-0.039-2-0.039-0.211 0-0.574 0.093-1.078 0.281-0.563 0.187-0.946 0.281-1.161 0.281-0.585-0.43-0.921-0.641-1-0.641-0.375 0-0.601 0.184-0.679 0.559-0.16 0.426-0.563 0.641-1.199 0.641-1.336 0-3.707-0.2-7.122-0.602-1.839-0.211-3.535-0.426-5.082-0.641l0.364-0.16c0.746-0.183 2.078-0.652 4-1.398 1.359-0.535 2.679-0.801 3.957-0.801 0.242 0 1 0.149 2.281 0.442 1.145 0.265 1.973 0.492 2.48 0.679l-0.281 0.039c0 0.028 0.176 0.039 0.52 0.039l-0.199-0.078c-0.481-0.215-0.825-0.398-1.04-0.558-0.132-0.161-0.242-0.282-0.32-0.364 0.051-0.078 0.387-0.172 1-0.277 0.559-0.133 0.84-0.375 0.84-0.723 0-0.476-0.039-0.613-0.121-0.398-0.664-0.586-1.145-1.027-1.438-1.32-0.187 0-0.347 0.015-0.48 0.039 0-0.024 0.027-0.078 0.078-0.161 0.027-0.05 0.039-0.105 0.039-0.16-0.105-0.078-0.172-0.132-0.199-0.156-0.133-0.137-0.574-0.469-1.32-1l-1.079 0.199-0.039 0.039-1.562 0.2h-0.117c-0.75 0.027-1.414 0.027-2 0h-1.524l-9.199 0.242-2.039 0.078-2.68 0.082c-0.668 0.023-1.082 0.066-1.242 0.117-0.133 0.055-0.211 0.215-0.238 0.481 0.16 0.293 0.238 0.496 0.238 0.601 1.309-0.562 2.695-0.375 4.16 0.559 0.774 0.48 1.551 1.093 2.321 1.84l-1.321 0.878c-0.05 1.016 0.321 1.774 1.121 2.282 0.161 0.054 0.321 0.121 0.481 0.199 0.027 0 0.039 0.016 0.039 0.043 0.082 0.051 0.176 0.094 0.281 0.117 0.078 0.027 0.188 0.043 0.32 0.043l0.04 0.078c0.453 0.188 0.945 0.36 1.48 0.52-0.078 0.746-0.586 1.133-1.52 1.16-0.933-0.133-1.425-0.199-1.48-0.199-1.785 0-3.879-0.321-6.281-0.961-2.051-0.532-3.344-0.985-3.879-1.36zm3.16 4.719-0.281-0.238-0.321-0.199 0.602 0.437zm30.32 0.043-0.121 0.039 0.36-0.082-0.239 0.043zm12.879-0.922c-0.16-0.32-0.867-0.746-2.121-1.281l-0.519-0.238 0.121 0.078c0.082 0.027 0.48 0.242 1.199 0.64 0.773 0.426 1.215 0.696 1.32 0.801zm-10.199-2.48c0.586 0.027 1.094 0.187 1.52 0.48l-0.801-0.039c-0.664 0-1.321-0.105-1.957-0.32 0.265-0.133 0.679-0.176 1.238-0.121zm0.879-2.68-0.18-0.102 0.442 0.262-0.262-0.16zm-9.879-2.238c-0.188 0.051-0.613 0.039-1.281-0.043-0.692-0.133-1.239-0.465-1.641-1l0.32-0.039c0.243-0.051 0.497-0.078 0.762-0.078 0.684 0 1.211 0.05 1.578 0.16h0.024c0.144 0.047 0.265 0.101 0.359 0.16 0.184 0.105 0.227 0.344 0.117 0.719l-0.238 0.121zm4.602 4 0.078-0.242c0.132-0.215 0.453-0.321 0.961-0.321 0.293 0 0.531 0.082 0.718 0.242 0.028 0.051 0.282 0.387 0.762 1l-0.723-0.043c-1.039-0.183-1.636-0.398-1.796-0.636zm-12.524-4.043 0.281-0.16c0.215-0.106 0.414-0.161 0.602-0.161 0.238-0.023 0.371 0.028 0.398 0.161l-1.281 0.16zm-6.398-9.52 0.082 0.082 0.679 0.36c0.797 0.078 1.504 0.105 2.118 0.078 0.347-0.078 0.668-0.184 0.961-0.321 0.558-0.238 0.894-0.476 1-0.718 0-0.028-0.293 0.066-0.879 0.281-0.668 0.238-1.121 0.359-1.36 0.359-0.453 0-1.121-0.586-2-1.761-0.773-1.012-1.215-1.731-1.32-2.161l-0.082 0.602c-0.16-0.187-0.734-0.348-1.719-0.48-2.348-0.293-3.601-0.438-3.762-0.438l-0.796 0.117c0.773 0.481 1.691 1.028 2.757 1.641 0.989 0.558 1.508 0.84 1.563 0.84 0.293 0 0.598-0.028 0.918-0.078 0.558-0.188 0.933-0.442 1.121-0.762 0.133 0.961 0.305 1.652 0.519 2.082 0.106 0.133 0.172 0.226 0.2 0.277zm-0.36 17.321c0 0.132-0.121 0.253-0.359 0.359-0.188 0.109-0.43 0.16-0.723 0.16-0.238 0-0.465-0.051-0.679-0.16-0.211-0.106-0.321-0.227-0.321-0.359 0-0.133 0.11-0.254 0.321-0.36 0.214-0.105 0.441-0.16 0.679-0.16 0.297 0 0.535 0.055 0.723 0.16 0.238 0.106 0.359 0.227 0.359 0.36zm2.961-8.161c0.746 0 1.387 0.106 1.918 0.321 0.535 0.215 0.801 0.468 0.801 0.761 0 0.266-0.266 0.52-0.801 0.758-0.531 0.215-1.172 0.321-1.918 0.321-0.75 0-1.375-0.106-1.883-0.321-0.531-0.238-0.796-0.492-0.796-0.758 0-0.293 0.265-0.546 0.796-0.761 0.508-0.215 1.137-0.321 1.883-0.321zm-7.84 7.762c-2.562-0.105-4.347-0.265-5.363-0.48 0.297 0.105 0.453 0.332 0.481 0.679 0.027-0.082 0.32-0.148 0.882-0.199 0.371-0.027 0.731-0.039 1.079-0.039l2.921 0.039zm-5.203-14.121c-0.16-0.215-0.824-0.453-2-0.719-0.824-0.187-1.332-1.148-1.519-2.883-0.211 0.43-0.321 0.84-0.321 1.243 0 0.32 0.254 0.8 0.762 1.441 0.695 0.906 1.547 1.293 2.559 1.156l0.519-0.238zm-6.84 8.398 0.641 0.043-0.68 0.481v-0.242l0.039-0.282zm-3.878-7c0-0.05-0.028-0.117-0.079-0.199-0.136-0.051-0.269-0.078-0.402-0.078-0.16 0-0.277 0.027-0.359 0.078-0.106 0.082-0.16 0.149-0.16 0.199 0 0.083 0.054 0.149 0.16 0.204 0.082 0.078 0.199 0.117 0.359 0.117 0.133 0 0.266-0.039 0.402-0.117 0.051-0.055 0.079-0.121 0.079-0.204zm-1.2-0.039c-0.054-0.211-0.414-0.453-1.082-0.718l-0.679-0.282c0.402 0.696 0.933 1.106 1.601 1.243l0.16-0.243zm19.078-14.64 0.043-0.117c-0.828-0.243-1.375-0.364-1.64-0.364-0.453 0-0.84-0.25-1.16-0.757-0.188-0.348-0.336-0.708-0.442-1.083v-0.078c-0.238 0.321-0.304 0.84-0.199 1.559 0.746 0.828 1.441 1.242 2.078 1.242 0.43 0 0.867-0.121 1.32-0.359v-0.043zm0.524 1.84c-0.027 0.082-0.043 0.148-0.043 0.203 0 0.293 0.109 0.543 0.32 0.758 0.215 0.214 0.453 0.32 0.723 0.32 0.266 0 0.492-0.106 0.68-0.32 0.238-0.215 0.359-0.465 0.359-0.758 0-0.321-0.121-0.59-0.359-0.801-0.188-0.215-0.414-0.32-0.68-0.32-0.27 0-0.508 0.105-0.723 0.32-0.16 0.16-0.254 0.359-0.277 0.598zm-21.563 9.242c0.188 0.133 0.426 0.199 0.719 0.199 0.27 0 0.508-0.066 0.723-0.199 0.187-0.082 0.277-0.215 0.277-0.403 0-0.16-0.09-0.292-0.277-0.398-0.215-0.105-0.453-0.16-0.723-0.16-0.293 0-0.531 0.055-0.719 0.16-0.187 0.106-0.281 0.238-0.281 0.398 0 0.188 0.094 0.321 0.281 0.403zm6.52 3.558c0.109-0.105 0.16-0.238 0.16-0.398 0-0.188-0.051-0.348-0.16-0.48-0.133-0.133-0.32-0.2-0.559-0.2-0.242 0-0.414 0.067-0.519 0.2-0.133 0.132-0.199 0.292-0.199 0.48 0 0.16 0.066 0.293 0.199 0.398 0.105 0.161 0.277 0.243 0.519 0.243 0.239 0 0.426-0.082 0.559-0.243zm3.32-8c0.403 0 0.762-0.093 1.082-0.277 0.293-0.137 0.438-0.32 0.438-0.562 0-0.239-0.145-0.438-0.438-0.598-0.32-0.16-0.679-0.242-1.082-0.242-0.426 0-0.773 0.082-1.039 0.242-0.293 0.16-0.441 0.359-0.441 0.598 0 0.242 0.148 0.425 0.441 0.562 0.266 0.184 0.613 0.277 1.039 0.277zm-4.238-0.277c-0.242 0-0.695 0.238-1.359 0.719-1.282 0-2.094-0.067-2.442-0.199-0.348-0.27-0.734-0.536-1.16-0.801 0.32 0.828 0.934 1.305 1.84 1.437 0.773 0.137 1.359-0.011 1.762-0.437l1.398-0.442-0.039-0.277zm4.879-2.523c0.133 0 0.238-0.039 0.32-0.118 0.106-0.082 0.16-0.16 0.16-0.242 0-0.105-0.054-0.199-0.16-0.277-0.082-0.055-0.187-0.082-0.32-0.082s-0.238 0.027-0.32 0.082c-0.079 0.078-0.122 0.172-0.122 0.277 0 0.082 0.043 0.16 0.122 0.242 0.082 0.079 0.187 0.118 0.32 0.118zm12.879 0.64c0.082-0.051 0.121-0.117 0.121-0.199 0-0.051-0.039-0.121-0.121-0.199-0.078-0.055-0.16-0.082-0.239-0.082-0.132 0-0.214 0.027-0.242 0.082-0.078 0.078-0.117 0.148-0.117 0.199 0 0.082 0.039 0.148 0.117 0.199 0.028 0.055 0.11 0.082 0.242 0.082 0.079 0 0.161-0.027 0.239-0.082zm-2.598 1.52c0.133-0.051 0.199-0.133 0.199-0.238 0-0.083-0.066-0.161-0.199-0.243-0.16-0.078-0.348-0.117-0.562-0.117-0.211 0-0.387 0.039-0.52 0.117-0.16 0.082-0.238 0.16-0.238 0.243 0 0.105 0.078 0.187 0.238 0.238 0.133 0.082 0.309 0.121 0.52 0.121 0.214 0 0.402-0.039 0.562-0.121zm-4.762-2.758c-0.214-0.16-0.453-0.242-0.718-0.242-0.293 0-0.536 0.082-0.719 0.242-0.215 0.16-0.32 0.359-0.32 0.598 0 0.242 0.105 0.457 0.32 0.64 0.183 0.16 0.426 0.242 0.719 0.242 0.265 0 0.504-0.082 0.718-0.242 0.188-0.183 0.282-0.398 0.282-0.64 0-0.239-0.094-0.438-0.282-0.598z" inkscape:connector-curvature="0"/>
      <path id="path20" style="fill-rule:evenodd;fill:#593d2e" d="m62.121 21.76c-0.375 0.132-0.695 0.226-0.961 0.281 0.028-0.321 0.028-0.696 0-1.121l-0.121-0.2c0 0.719-0.144 1.332-0.437 1.84-0.161 0.348-0.282 0.614-0.364 0.801 0.028-0.027 0.071-0.027 0.121 0l0.282 0.199c0.132 0.024 0.199 0.278 0.199 0.758-0.028 0.563-0.039 0.961-0.039 1.199 0 0.188 0.16 0.563 0.48 1.121 0.321 0.563 0.598 0.989 0.84 1.282v-6.16zm-3.961 8.398-0.519-1.68-0.442-0.597c0.082-0.215 0.36-0.563 0.84-1.043 0.375-0.371 0.52-0.774 0.441-1.2l-0.039-0.64c-0.214 0.613-0.613 1.281-1.203 2-0.531 0.613-0.797 0.933-0.797 0.961 0 0.293 0.184 0.64 0.559 1.039 0.375 0.375 0.559 1.015 0.559 1.922 0 0.375-0.094 0.84-0.282 1.398-0.211 0.723-0.492 1.281-0.839 1.68l0.121 0.082 0.839-0.84c0.348-0.48 0.547-0.973 0.602-1.48l0.121 3 0.156 0.039h-0.039l0.321 0.121 0.519 0.238c0-0.023-0.051-0.172-0.156-0.438-0.137-0.375-0.203-0.707-0.203-1 0-0.242 0.176-0.613 0.519-1.121 0.321-0.558 0.481-1.199 0.481-1.922v-0.16c-0.051 0.696-0.172 1.203-0.36 1.524-0.16 0.32-0.347 0.41-0.558 0.277-0.242-0.105-0.414-0.398-0.52-0.879-0.109-0.453-0.148-0.879-0.121-1.281zm-7.762 0.32c0.321-0.426 0.696-0.746 1.122-0.961l-0.161-0.918c-0.132 0.078-0.453 0.293-0.961 0.641-0.586 0.371-0.957 0.598-1.117 0.68l1.117 0.558zm1.481 0.801c-0.051-0.187-0.133-0.453-0.238-0.801l-0.082-0.078v0.719l0.14 0.058 0.18 0.102zm-4.16-4c0-0.348-0.106-1.414-0.321-3.199 0-0.481 0.067-1 0.204-1.563-0.961 1.387-1.497 2.414-1.602 3.082-0.105 0.696-0.332 1.293-0.68 1.801l0.879 0.68c0.106-0.801 0.176-1.293 0.199-1.481 0.082-0.293 0.204-0.535 0.364-0.718l0.277-0.403c0.266 2.321 0.441 3.508 0.52 3.563l0.679 0.359c-0.343-0.695-0.519-1.402-0.519-2.121zm-5.68-22.039-0.039 0.68-0.16 1.519c1.387 1.547 1.894 3.68 1.519 6.399 0.243-0.211 0.641-0.411 1.2-0.598 0.695-0.242 1.402-0.359 2.121-0.359 0.48 0 0.828 0.105 1.039 0.32 0.242 0.266 0.453 0.797 0.64 1.598l0.321-0.039 0.082-1.04c0-0.773-0.203-1.308-0.602-1.601-0.293-0.238-0.762-0.375-1.398-0.399l-0.043-0.679c0-0.215 0.121-0.387 0.359-0.524l-0.476 0.16c0.16-0.21 0.558-0.57 1.199-1.078 0.558-0.507 0.867-0.961 0.918-1.359-0.371-0.242-0.934-0.387-1.68-0.441-0.719-0.028-1.144-0.051-1.277-0.082 0.183-0.133 0.519-0.344 1-0.637 0.398-0.27 0.652-0.508 0.758-0.719-0.852-1.23-1.348-1.867-1.481-1.922-0.48-0.238-1.801-0.199-3.961 0.121l-0.039 0.68zm10.481 6.48c-0.293-0.64-0.575-1.082-0.84-1.32-0.403-0.348-0.946-0.519-1.641-0.519-0.668 0-1.441 0.132-2.32 0.398 0.32-0.051 0.734-0.094 1.242-0.117 0.078 0 0.598 0.199 1.559 0.598 1.039 0.453 1.707 0.773 2 0.96zm2.199 3.918c0.16-0.187 0.254-0.293 0.281-0.32 0.078-0.078 0.266-0.117 0.559-0.117 0.347 0 0.562 0.105 0.64 0.316 0.082 0.137 0.16 0.535 0.242 1.203l0.039 0.079-0.64 0.359c-0.188-0.371-0.399-0.707-0.641-1 0.028 0.402 0.348 0.855 0.961 1.359 0.426 0.321 0.387 1.254-0.121 2.801l0.082-0.117c0.16-0.055 0.371-0.082 0.641-0.082 0.8 0 1.359 0.199 1.679 0.601 0.188 0.239 0.305 0.614 0.36 1.118v0.363c0.133-0.402 0.199-0.84 0.199-1.32l-0.559-1.282c-0.054 0.106-0.148 0.188-0.281 0.239-0.187 0.136-0.414 0.203-0.68 0.203-0.265 0-0.492-0.067-0.679-0.203-0.215-0.106-0.321-0.239-0.321-0.399s0.106-0.304 0.321-0.441c0.187-0.078 0.414-0.117 0.679-0.117 0.266 0 0.493 0.039 0.68 0.117l0.039 0.043-0.758-1.723c0-0.48 0.371-1.066 1.118-1.758 0.75 0.664 1.187 1.094 1.32 1.278 0.426 0.507 0.746 1.093 0.961 1.761l0.32-0.281c0.028-0.293 0.117-0.719 0.278-1.277 0.136-0.508 0.203-0.883 0.203-1.121 0-0.856-0.629-1.414-1.883-1.68l-0.918 0.277c-0.082-0.316-0.121-0.238-0.121 0.243 0 0.292 0.054 0.453 0.16 0.48 0.242 0.055 0.398 0.105 0.48 0.16-0.718 0-1.414 0.051-2.082 0.16 0-0.668 0.094-1.093 0.282-1.281 0.242-0.238 0.402-0.559 0.48-0.961-0.801-0.801-1.437-1.199-1.918-1.199-0.242 0-0.426 0.066-0.559 0.199-0.296 0.242-0.695 0.481-1.203 0.723l-0.398 0.476c-0.027-0.293 0.16-0.691 0.559-1.199 0.535-0.613 0.839-1.16 0.921-1.641-0.054-0.265-0.574-0.824-1.562-1.679-1.117-0.934-2.039-1.504-2.758-1.719l-0.359 0.082c-0.082 0.957 0.144 1.774 0.679 2.438 0.747 0.961 1.2 1.652 1.36 2.082 0.078 0.105 0.215 0.226 0.398 0.359 0.082 0.16 0.121 0.398 0.121 0.719 0 0.215-0.375 0.75-1.121 1.601h0.602c0 0.028 0.051 0.106 0.16 0.239 0.16 0.187 0.238 0.429 0.238 0.722 0 0.16-0.133 0.574-0.398 1.239-0.293 0.613-0.442 1.707-0.442 3.281-0.668 0.027-1.132 0.078-1.398 0.16-0.402 0.105-0.707 0.453-0.922 1.039l0.684-0.039c0.05-0.293 0.515-0.481 1.398-0.563 0.293 0.082 0.465 0.149 0.52 0.204 0.132 0.105 0.199 0.32 0.199 0.636 0 0.297-0.106 0.535-0.32 0.723l-0.36 0.199c-0.027-0.133-0.105-0.226-0.238-0.281 0.133 0.535 0.199 1.043 0.199 1.519l-0.121 1.282c0.266-0.801 0.652-1.586 1.16-2.36 0.238-0.402 0.453-0.734 0.641-1 0-0.242-0.067-0.695-0.199-1.359-0.215-0.668-0.321-1.121-0.321-1.363 0-1.758 0.481-2.825 1.438-3.2zm1.761-1.32c-0.132 0.188-0.292 0.281-0.48 0.281-0.215 0-0.387-0.093-0.52-0.281-0.105-0.133-0.16-0.305-0.16-0.519 0-0.215 0.055-0.414 0.16-0.598 0.133-0.137 0.309-0.203 0.52-0.203 0.188 0 0.348 0.066 0.48 0.203 0.133 0.184 0.2 0.383 0.2 0.598 0 0.214-0.067 0.386-0.2 0.519z" inkscape:connector-curvature="0"/>
      <path id="path22" style="fill-rule:evenodd;fill:#4d392a" d="m47.078 10.517 0.203-0.078c0.133-0.054 0.278-0.105 0.438-0.16 0.883-0.266 1.656-0.398 2.32-0.398 0.695 0 1.242 0.171 1.641 0.519 0.265 0.238 0.547 0.68 0.84 1.32l0.281 0.161c-0.16-0.43-0.613-1.121-1.36-2.082-0.535-0.668-0.761-1.481-0.679-2.438l0.359-0.082c0.719 0.215 1.641 0.785 2.758 1.719 0.988 0.851 1.508 1.414 1.559 1.679-0.079 0.481-0.383 1.028-0.918 1.641-0.399 0.508-0.586 0.906-0.559 1.199l0.398-0.48c0.508-0.238 0.907-0.477 1.2-0.719 0.132-0.133 0.32-0.199 0.562-0.199 0.481 0 1.117 0.398 1.918 1.199-0.078 0.399-0.238 0.719-0.48 0.961-0.188 0.188-0.282 0.613-0.282 1.281 0.668-0.109 1.36-0.16 2.082-0.16-0.078-0.055-0.238-0.105-0.48-0.16-0.106-0.027-0.156-0.188-0.156-0.48 0-0.481 0.039-0.559 0.117-0.243l0.922-0.277c1.25 0.266 1.879 0.824 1.879 1.68 0 0.238-0.067 0.613-0.2 1.121-0.16 0.558-0.253 0.984-0.281 1.277 0 0.109 0.293 0.215 0.879 0.32l0.199-3.277c0-0.43-2.773-3.043-8.316-7.844-5.789-5.011-9.375-7.515-10.762-7.515-0.398 0-1.84 0.133-4.32 0.398-2.453 0.266-4.25 0.465-5.399 0.602l-5.039 0.515c-2.136 0.11-5.894 0.403-11.281 0.883-7.84 0.719-13.359 1.211-16.562 1.481l-0.161 1h0.043c0.426-0.161 1.106-0.293 2.039-0.403 0.879-0.133 1.508-0.199 1.879-0.199 0.696 0 1.188 0.094 1.481 0.281-1.227 0.321-2 0.559-2.32 0.719h0.402c0.105 0.027 0.293 0.055 0.558 0.082h1.161c0.398 0 0.707 0.106 0.918 0.316 0.082 0.055 0.16 0.137 0.242 0.243 0.187 0.105 0.344 0.226 0.48 0.359l0.039-0.32c-0.105-0.481-0.16-0.895-0.16-1.242l2.078-0.04 2.242 0.481c-0.265 0.082-0.507 0.176-0.718 0.281-0.321 0.133-0.563 0.266-0.723 0.399 0.266 0.109 0.602 0.187 1 0.242h0.199l2.442-0.082c-0.508-0.238-0.813-0.399-0.918-0.481-0.055-0.05-0.215-0.211-0.481-0.48 0.426-0.774 1.012-1.16 1.758-1.16 0.402 0 0.922 0.082 1.563 0.242 0 0.961 0.117 1.668 0.359 2.121l0.039-0.402c0.105-0.664 0.52-1.188 1.238-1.559 0.481-0.215 1.297-0.574 2.442-1.082l1.242-0.078 1.719 0.121c0.664 0.133 1.132 0.187 1.398 0.16h0.121c0.719-0.187 3.332-0.562 7.84-1.121 0.48 0 1.105 0.133 1.879 0.398 0.906 0.297 1.496 0.641 1.762 1.043-0.243 0.079-0.387 0.254-0.442 0.52 0.403 0.453 0.774 1.16 1.121 2.121 0.055-0.027 0.172-0.137 0.36-0.32 0.105-0.137 0.199-0.203 0.281-0.203-0.43-0.797-0.402-1.571 0.078-2.321 0.481-0.746 1.176-1.117 2.082-1.117 0.293 0 0.465 0.027 0.52 0.078 0.054 0.055 0.105 0.149 0.16 0.282-0.613 0.242-1.028 0.453-1.242 0.64 0.64 0.133 1.16 0.481 1.562 1.039 0.266 0.321 0.438 0.641 0.52 0.961l0.078-0.558c-0.266-1.387-0.239-2.2 0.082-2.442 0.691-0.586 1.121-1.094 1.277-1.519l0.043-0.161-0.043 0.559v3.281c2.16-0.32 3.481-0.359 3.961-0.121 0.133 0.055 0.629 0.692 1.481 1.922-0.106 0.211-0.36 0.449-0.758 0.719-0.481 0.293-0.817 0.504-1 0.637 0.133 0.027 0.558 0.054 1.277 0.082 0.75 0.054 1.309 0.199 1.68 0.441-0.051 0.398-0.36 0.852-0.918 1.359-0.641 0.508-1.039 0.868-1.199 1.078l0.476-0.16zm1.281 4.282c-0.187-0.801-0.398-1.332-0.64-1.598-0.211-0.215-0.559-0.32-1.039-0.32-0.719 0-1.426 0.117-2.121 0.359-0.559 0.187-0.957 0.387-1.2 0.598l-0.16 0.16c0.586-0.211 1.067-0.321 1.442-0.321 0.504 0 1.066 0.137 1.679 0.403 0.801 0.347 1.426 0.84 1.879 1.48l0.16-0.761zm8.039 19.8 0.68-0.281-0.519-0.238 1.203 0.519 0.359 0.161-0.121-3c-0.055 0.507-0.254 1-0.602 1.48l-0.839 0.84-0.118-0.082c-0.054 0.109-0.121 0.137-0.203 0.082-0.05 0-0.105 0.055-0.16 0.16l0.16 0.359h0.16zm-4.839-3.48v-0.719l-0.039-0.883c-0.426 0.215-0.801 0.535-1.122 0.961l0.122 0.082c-0.055 0.106-0.082 0.481-0.082 1.117h0.32c0.269-0.078 0.496-0.292 0.68-0.636l0.121 0.078zm-4-2.078c-0.079-0.055-0.254-1.242-0.52-3.563l-0.277 0.403c-0.16 0.183-0.282 0.425-0.364 0.718-0.023 0.188-0.093 0.68-0.199 1.481l0.879 0.597-0.797-0.519c0.211 0.453 0.199 0.855-0.043 1.203l-0.238 0.277c0.48-0.027 0.855-0.121 1.121-0.277 0.184-0.109 0.332-0.215 0.438-0.32zm4.363-6.922c0.133 0.055 0.211 0.148 0.238 0.281l0.36-0.199c0.214-0.188 0.32-0.43 0.32-0.723 0-0.32-0.067-0.531-0.199-0.64-0.055-0.051-0.227-0.118-0.52-0.2-0.883 0.082-1.348 0.266-1.402 0.563l1.203 0.918zm3.277-5.961c0.242 0.293 0.453 0.629 0.641 1l0.64-0.359-0.039-0.079c-0.082-0.668-0.16-1.066-0.242-1.203-0.078-0.211-0.293-0.316-0.64-0.316-0.293 0-0.481 0.039-0.559 0.117-0.027 0.027-0.121 0.133-0.281 0.32l0.48 0.52zm3 2.883-0.039-0.043c-0.187-0.078-0.414-0.117-0.68-0.117-0.269 0-0.492 0.039-0.679 0.117-0.215 0.137-0.321 0.281-0.321 0.441s0.106 0.293 0.321 0.399c0.183 0.136 0.41 0.203 0.679 0.203 0.266 0 0.493-0.067 0.68-0.203 0.133-0.051 0.227-0.133 0.281-0.239v-0.16c0-0.16-0.082-0.293-0.242-0.398zm-19.359-7.883c-0.051-0.16-0.106-0.305-0.16-0.441l-0.282-0.04-0.359-0.039c-0.664 0.028-1.078 0.149-1.238 0.36l0.039 0.203c0.348 0.105 0.707 0.492 1.082 1.16v0.039l1.117-0.16c-0.051-0.426-0.117-0.789-0.199-1.082zm-3.641-3.879-0.879-0.039l-1 0.121c0.746 0.289 1.266 0.543 1.559 0.758l1.199 0.359c0.16 0.028 0.508-0.027 1.043-0.16-0.082-0.078-0.402-0.254-0.961-0.519-0.558-0.321-0.879-0.493-0.961-0.52zm-11.039-2.519c0.188 0.32 0.481 0.679 0.879 1.078l0.199 0.121c0.43-0.215 0.657-0.426 0.684-0.641 0.023-0.187-0.055-0.359-0.242-0.519-0.188-0.161-0.442-0.239-0.758-0.239-0.297-0.027-0.508-0.027-0.641 0l-0.121 0.2zm-19.519 6.8v0.16c0.214-0.054 0.574-0.16 1.078-0.32 0.32 0 0.734 0.039 1.242 0.117 0.32 0.028 0.613 0.094 0.879 0.203 0.398 0.079 0.879 0.2 1.441 0.36l-0.242-0.403c-0.293-0.371-0.547-0.718-0.758-1.039-0.695-0.078-1.453-0.121-2.281-0.121-0.32 0-0.652 0.043-1 0.121-0.348 0.055-0.426 0.243-0.238 0.563v0.078l-0.121 0.281zm14.32-1.242 1.16-0.156l-0.121-0.402c-1.172-1.016-1.879-1.614-2.121-1.801-0.293-0.188-0.852-0.282-1.68-0.282-0.824 0-1.48 0.204-1.961 0.602 1.176-0.078 1.934 0.027 2.282 0.32 0.187 0.215 0.308 0.746 0.359 1.602 0.027 0.078 0.043 0.133 0.043 0.16 0.023 0.051 0.066 0.09 0.117 0.117 0.133 0.082 0.266 0.121 0.402 0.121h0.161l0.679-0.082 0.68-0.199zm12.758 2.242c-0.184-0.082-0.453-0.109-0.797-0.082-0.348 0-0.629 0.067-0.844 0.199 0 0.137 0.348 0.282 1.043 0.442 0.348 0.055 0.691 0.094 1.039 0.121l-0.441-0.68z" inkscape:connector-curvature="0"/>
      <path id="path24" style="fill-rule:evenodd;fill:#6e4533" d="m0.32 8.4c0.028 0.211 0.055 0.426 0.078 0.641v0.199l0.043 4.758 0.52 0.082 0.398-0.16 0.403 2.48 0.117 0.32c0.109-0.453 0.16-1.386 0.16-2.8 0-0.481 0.027-1.016 0.082-1.602l-0.402 0.68c0.109-0.824 0.562-1.559 1.359-2.199 0.723-0.586 1.43-0.907 2.121-0.961 0.106-0.453 0.176-1.118 0.199-2-0.398-0.024-0.906-0.211-1.519-0.559-0.613-0.32-1.024-0.48-1.238-0.48h-0.403c0.403-0.161 0.817-0.239 1.242-0.239 0.215 0 0.465 0.078 0.758 0.239 0.27 0.187 0.508 0.281 0.723 0.281 0.32 0 0.879-0.106 1.68-0.32 0-0.028 0.078-0.243 0.238-0.641-0.024-0.078-0.051-0.145-0.078-0.199-0.082-0.106-0.16-0.188-0.242-0.243-0.211-0.21-0.52-0.316-0.918-0.316h-1.161c-1.335 0.078-2.253 0.238-2.761 0.481-0.934 0.449-1.399 1.304-1.399 2.558zm13.918-0.121c-0.636 0.133-1.117 0.172-1.437 0.121 0.32-0.187 1.039-0.562 2.16-1.121l0.078-0.16c-0.398-0.027-1.094-0.199-2.078-0.52-1.016-0.32-1.586-0.492-1.723-0.519h-0.199c-0.184 0.082-0.758 0.613-1.719 1.601-0.668 0.637-1.508 0.731-2.519 0.282-0.133 0.879-0.227 1.691-0.281 2.437 1.386-0.187 2.441 0.082 3.16 0.801 0.695 0.719 0.761 1.586 0.199 2.601 0.055 0.239 0.055 0.543 0 0.918-0.051 0.426-0.117 0.707-0.199 0.84 0.668-0.375 1.015-1 1.039-1.879 0-0.453-0.16-1.375-0.481-2.761 0.11-0.051 0.375-0.157 0.801-0.317 0.453-0.187 0.801-0.281 1.039-0.281 0.297 0 1.027 0.266 2.203 0.797 1.227 0.562 2.012 0.867 2.36 0.922h0.597c-0.023-0.239-0.023-0.508 0-0.801 0.082-0.32 0.203-0.531 0.364-0.641h-0.161l-0.64 0.762c0.027-0.269 0.066-0.457 0.121-0.562 0.051-0.082 0.051-0.227 0-0.438 0-0.027-0.016-0.082-0.043-0.16-0.051-0.856-0.172-1.387-0.359-1.602-0.348-0.293-1.106-0.398-2.282-0.32zm45.481 22.238v0.16c0.133-0.132 0.203-0.73 0.203-1.796-0.055-0.137-0.121-0.243-0.203-0.321-0.028 0.16-0.039 0.481-0.039 0.957l0.039 1zm-1.559-0.359 0.442 1.043c-0.11-0.457-0.27-1.055-0.481-1.801-0.133-0.562-0.199-0.988-0.199-1.281 0-0.266 0.105-0.559 0.316-0.879 0.215-0.32 0.336-0.563 0.36-0.723-0.211 0.137-0.36 0.309-0.438 0.524-0.133 0.504-0.308 0.984-0.519 1.437l0.519 1.68zm-10.558-7.641c-0.137 0.563-0.204 1.082-0.204 1.563 0.215 1.785 0.321 2.851 0.321 3.199l1.562 0.879c-0.082-0.106-0.254-0.746-0.519-1.918-0.375-1.414-0.563-2.629-0.563-3.641 0-0.265-0.011-0.507-0.039-0.718-0.187 0.05-0.375 0.265-0.558 0.636zm-5.762-15.078 0.16-1.519c-0.133 0.242-0.293 0.625-0.48 1.16-0.188 0.613-0.305 0.972-0.36 1.082l-0.238 0.476c-0.027-0.183-0.242-0.531-0.641-1.039-0.242-0.293-0.136-0.652 0.321-1.082-0.11-0.957-0.27-1.625-0.481-2-0.293-0.425-0.723-0.586-1.281-0.476-0.348 0.453-0.547 0.785-0.602 1-0.05 0.238 0.016 0.504 0.203 0.797-0.027 0.16-0.281 0.242-0.761 0.242l-0.559 0.082c0.184 0.398 0.52 0.824 1 1.277 0.481 0.481 0.774 0.84 0.879 1.082l-0.078 0.281c-0.375-0.269-0.789-0.441-1.242-0.523l-0.36 0.082c-0.027 0.746 0.305 1.492 1 2.238 0.028 0.028 0.055 0.051 0.078 0.078l0.282 0.043c0.054 0.133 0.105 0.282 0.16 0.442 0.48 0.558 0.762 0.918 0.84 1.078 0.293 0.398 0.308 0.574 0.039 0.52-0.426-0.161-0.731-0.227-0.918-0.2-0.188-0.133-0.281 0.039-0.281 0.52 0 0.082 0.335 0.535 1 1.359 0.027 0.055 0.187 0.242 0.48 0.563 0.215 0.293 0.32 0.597 0.32 0.918 0.028-0.481 0.16-0.868 0.399-1.16l0.402-0.122c0.133 0.321 0.211 0.922 0.238 1.801 0.028 0.801 0.016 1.535-0.039 2.199l0.2-0.039c0.105-2.64 0.214-6.359 0.32-11.16zm6.84 7.321-0.321 0.039-0.16 0.761c0 0.348 0.121 0.879 0.36 1.598 0.347 0.883 0.707 1.496 1.082 1.84l0.757 0.203c-0.265-0.27-0.625-0.988-1.078-2.16-0.375-1.094-0.586-1.856-0.64-2.281zm4.16 15.078c-0.078-2.051 0.027-3.532 0.32-4.438 0.399-1.281 0.625-2.133 0.68-2.562l-0.078-0.278c-0.485 0.266-0.801 0.598-0.961 1-0.188 0.481-0.547 2.293-1.082 5.438l1.121 0.84zm3.84-5.758c-0.453-0.215-0.758-0.387-0.918-0.52-0.133-0.187-0.215-0.746-0.242-1.679-0.161 0.16-0.254 0.265-0.282 0.32-0.078 0.133-0.117 0.359-0.117 0.68l0.238 0.48c0.188 0.426 0.403 0.774 0.641 1.039l0.199-0.039c0.188-0.027 0.348-0.121 0.481-0.281zm-2.282-3.199c0.215-0.614 0.215-1.137 0-1.563-0.293-0.531-0.437-1.051-0.437-1.558v-0.2l-0.082 1.758c0 0.641 0.176 1.16 0.519 1.563zm5.641 1.32c0.055-0.481 0.121-0.906 0.199-1.281 0.11-0.266 0.16-0.559 0.16-0.879 0-0.297-0.386-0.817-1.16-1.563l-0.16 0.039c0.16 0.16 0.348 0.535 0.563 1.121 0.211 0.586 0.359 1.106 0.437 1.563l-0.039 1zm-19.398 10.199c0.453 0 0.984-0.308 1.597-0.922l-0.078-0.238c-0.535-0.242-1.348-0.375-2.441-0.402-1.254-0.051-2.117 0.066-2.598 0.363 0.211 0.051 0.852 0.293 1.918 0.719 0.856 0.32 1.387 0.48 1.602 0.48zm-2.879-6.601c-0.028-0.504 0.293-1.813 0.957-3.918 0-0.563-0.133-1.043-0.399-1.442-0.265-0.375-0.398-0.746-0.398-1.121 0-0.293 0.039-0.504 0.117-0.641 0.055-0.078 0.199-0.226 0.441-0.437-0.906 0.344-1.359 0.641-1.359 0.879 0 0.242 0.094 0.652 0.277 1.242 0.215 0.559 0.321 0.957 0.321 1.199 0 0.266-0.344 0.934-1.039 2-0.801 1.305-1.614 2.051-2.442 2.239h1.524c0.586 0.027 1.25 0.027 2 0zm-14.16-4.321c0.531 0.481 0.89 1.176 1.078 2.082 0.187 1.012 0.519 1.825 1 2.438l1.922-0.039c-0.668-0.399-1.254-1.078-1.762-2.039-0.481-0.879-0.719-1.602-0.719-2.16-0.613-0.083-1.121-0.176-1.519-0.282zm-3.282 4.723 2.68-0.082c0.266-0.32 0.52-0.68 0.762-1.078 0.211-0.375 0.316-0.59 0.316-0.641 0-0.723-0.344-1.574-1.039-2.562-0.691-0.957-1.039-1.746-1.039-2.36 0-0.398 0.055-0.718 0.16-0.961l0.078-0.117c0 0.664 0.149 1.332 0.442 2 0-0.48 0.027-0.961 0.082-1.441 0-0.266-0.055-0.508-0.16-0.719-0.321-0.563-0.481-0.855-0.481-0.879l-0.043-0.844c-0.426 0.403-0.637 0.844-0.637 1.321l0.079 3.16c0.027 0.961 0.335 1.601 0.921 1.922 0.266 0.187 0.532 0.347 0.797 0.48 0 0.801-0.265 1.399-0.797 1.801-0.242 0.16-0.949 0.492-2.121 1zm4.84 8-1.961-1.121 1.762-0.199c-0.106-0.028-0.199-0.067-0.281-0.121-0.641-0.321-1.266-0.481-1.879-0.481-0.266 0-0.68 0.094-1.242 0.281-0.481 0.133-0.84 0.266-1.079 0.399l0.2 0.199c0.586 0.269 1 0.547 1.242 0.84 0.266 0.16 1.344 0.226 3.238 0.203zm1-0.883c-0.082 0-0.16-0.012-0.238-0.039 0.051 0.055 0.105 0.094 0.156 0.121-0.906 0.481-1.09 0.735-0.558 0.758 1.785-0.023 2.148-0.184 1.082-0.481l-0.082-0.238-0.04-0.078c-0.132 0-0.242-0.016-0.32-0.043zm-17.16-6.199h0.121c-0.055-0.266 0.078-0.281 0.399-0.039l0.519-0.039c0.055-0.403 0.281-1.176 0.68-2.321l0.082-0.242c0.16 0.719 0.238 1.496 0.238 2.34v0.02l0.039-0.02 0.043-0.019c-0.055-1.227-0.082-2.52-0.082-3.879-0.133 0.293-0.437 0.972-0.918 2.039-0.535 1.121-0.906 1.84-1.121 2.16zm-7.762 0.039 0.602 0.519h0.039v-1.796c-0.184 0.425-0.399 0.851-0.641 1.277zm29.321-7.16c-0.614 0.027-1.321 0-2.118-0.078l-0.679-0.36-0.082-0.082-0.239-0.16c0.211 0.883 1.012 1.817 2.399 2.801 1.414 1.016 2.558 1.426 3.441 1.242 0.106-0.43-0.015-0.883-0.359-1.363-0.348-0.453-0.535-0.703-0.563-0.758 0-0.055 0.282-0.359 0.84-0.922 0.535-0.851 0.801-1.906 0.801-3.16 0-0.481-0.039-0.984-0.121-1.52 0.027 1.122-0.145 2.039-0.52 2.762-0.504 0.934-1.437 1.465-2.8 1.598zm14.882-1c-0.296-0.266-0.574-0.613-0.839-1.039-0.563-0.801-0.922-1.625-1.082-2.481l-0.122-0.078c-0.238 0.106-0.359 0.531-0.359 1.277 0 1.84 0.586 2.79 1.762 2.84l0.64-0.519zm-24.242-7.758c0.188 0.531 0.266 1.414 0.242 2.641l0.278-0.641c-0.133-0.906-0.305-1.574-0.52-2zm-1.519-8.039c-0.481 0.266-0.934 0.559-1.36 0.879-0.398 0.32-0.601 0.574-0.601 0.758 0 1.816 0.629 3.175 1.883 4.082 1.304 0.961 2.023 2.386 2.16 4.281 0.023-0.133 0.16-0.453 0.398-0.961 0.188-0.559 0.145-1.105-0.121-1.641 0.16 0.082 0.602 0.586 1.32 1.52 0.696 0.906 1.426 1.562 2.2 1.961 0-0.559-0.118-1.32-0.36-2.281-0.211-0.211-0.32-0.465-0.32-0.758 0-0.055 0.016-0.121 0.043-0.199-0.137-0.508-0.309-1.122-0.524-1.84v0.039c-0.453 0.238-0.89 0.359-1.32 0.359-0.637 0-1.332-0.414-2.078-1.238-0.105-0.723-0.039-1.242 0.199-1.563v0.082c0.028-0.109 0.067-0.214 0.121-0.32 0.215-0.48 0.481-0.719 0.801-0.719l2.039-0.882 0.121-0.2c-0.215 0-0.414-0.039-0.601-0.121-0.215-0.105-0.321-0.238-0.321-0.398-0.054-0.16-0.011-0.309 0.121-0.442 0.161-0.078 0.348-0.144 0.559-0.199-0.266 0.027-0.734-0.027-1.398-0.16l-1.719-0.121-1.242 0.082zm16.64 10.719-0.359-0.121c0.266-0.133 0.586-0.215 0.961-0.239 0.316-0.054 0.664-0.293 1.039-0.722-1.336 0.375-2.199 0.734-2.602 1.082h0.961zm-10.359-6.559c-0.242 0.531-0.359 1.012-0.359 1.438 0.238-0.215 0.878-0.321 1.918-0.321l0.082-0.16c0.05-0.105 0.183-0.156 0.398-0.156l0.719 0.078c0.109 0.426 0.187 0.906 0.242 1.441l-0.641-0.281c0.078 0.238 0.121 0.852 0.121 1.84 0 0.641-0.093 1.105-0.281 1.398-0.32 0.481-0.574 1.149-0.762 2 0.668-1.625 2.055-2.437 4.161-2.437 0.882 0 1.507 0.48 1.882 1.437-0.109-0.425-0.507-1.039-1.203-1.839-0.691-0.774-1.066-1.305-1.117-1.598l-0.043-0.641 1.684-0.121c0.746 0 1.293-0.012 1.636-0.039l1.403 0.961 1.48-0.043-1.203-1.84-1.199-0.359c-0.426-0.106-0.918-0.215-1.481-0.32-0.691-0.133-1.16-0.227-1.398-0.282 0.426-0.156 0.785-0.265 1.078-0.316 0.27-0.027 0.684-0.016 1.242 0.039l0.879 0.039c-0.105-0.641-0.547-1.426-1.32-2.359-0.824-0.985-1.598-1.481-2.32-1.481-1.891 0-3.184 0.082-3.879 0.242-0.879 0.184-1.321 0.598-1.321 1.239 0 0.242 0.106 0.492 0.321 0.761 0.215 0.266 0.32 0.52 0.32 0.758 0 0.215-0.105 0.508-0.32 0.879-0.266 0.453-0.508 0.469-0.719 0.043zm32.32 10.52c0.184 0.183 0.348 0.277 0.481 0.277-0.242-0.344-0.481-0.531-0.723-0.559l0.242 0.282zm-1.801-3.563c0.133-0.133 0.2-0.305 0.2-0.519 0-0.215-0.067-0.414-0.2-0.598-0.132-0.137-0.292-0.203-0.48-0.203-0.215 0-0.387 0.066-0.52 0.203-0.105 0.184-0.16 0.383-0.16 0.598 0 0.214 0.055 0.386 0.16 0.519 0.133 0.188 0.309 0.281 0.52 0.281 0.188 0 0.348-0.093 0.48-0.281zm-3.519 0.961c-1.602-1.121-3-2.348-4.199-3.68-0.137-0.132-0.254-0.199-0.364-0.199 0.243 0.211 0.547 0.707 0.922 1.481 0.641 0.879 1.852 1.679 3.641 2.398zm-33.723 5.84c0-1.442-0.343-2.586-1.039-3.442-0.746-0.906-1.172-1.917-1.277-3.039-0.75 0.856-1.227 1.336-1.442 1.442-0.265 0.187-0.828 0.359-1.679 0.519l-0.84 0.039c0.453 0.133 1.039 0.106 1.758-0.078 0.722-0.187 1.226-0.242 1.519-0.16 1.121 0.266 2.094 2.438 2.922 6.52l0.078-1.801zm10.121 2.398-0.039 0.364 1.442-0.364 0.519-0.039c-0.535-0.343-1.015-0.437-1.441-0.277-0.293 0.211-0.453 0.316-0.481 0.316zm-13.718-13 0.519 0.524c-1.039-0.481-1.719-0.762-2.039-0.84-0.32-0.082-1.121-0.137-2.402-0.16 1.519-0.75 2.801-0.656 3.84 0.277l0.082 0.199zm-9.719 9.203c-0.508 0.372-0.988 0.625-1.442 0.758-0.132 0.082-0.308 0.199-0.519 0.36 1.894 0.109 2.961 0.136 3.199 0.082 0.426-0.082 0.906-0.121 1.442-0.121 0.023 0 0.41 0.214 1.16 0.64 0.797 0.426 1.304 0.719 1.519 0.879l0.199 0.359c0.508-1.917 0.145-3.277-1.082-4.078-0.664-0.425-1.023-0.707-1.078-0.839-0.265-0.399-0.242-0.934 0.078-1.602-0.21 0.109-0.824 0.293-1.839 0.562-0.985 0.266-1.598 0.415-1.84 0.438 0.187 0.75 0.414 1.187 0.679 1.32 0.297 0.133 0.457 0.215 0.481 0.242-0.051 0.293-0.371 0.625-0.957 1zm9.719 3.36 0.961-0.16c-0.481-0.266-1.028-0.375-1.641-0.321 0.051 0.106 0.133 0.215 0.238 0.321 0.16 0.078 0.309 0.132 0.442 0.16zm-5.68-14.039c-0.188-0.137-0.281-0.309-0.281-0.524 0-0.238 0.093-0.437 0.281-0.597 0.16-0.133 0.371-0.2 0.641-0.2 0.265 0 0.476 0.067 0.636 0.2 0.16 0.16 0.242 0.359 0.242 0.597 0 0.215-0.082 0.387-0.242 0.524-0.16 0.16-0.371 0.238-0.636 0.238-0.27 0-0.481-0.078-0.641-0.238zm19.16-2.281c-0.215-0.215-0.32-0.469-0.32-0.762 0-0.321 0.105-0.586 0.32-0.797 0.211-0.215 0.453-0.32 0.719-0.32 0.293 0 0.547 0.105 0.762 0.32 0.21 0.211 0.32 0.476 0.32 0.797 0 0.293-0.11 0.547-0.32 0.762-0.215 0.21-0.469 0.32-0.762 0.32-0.266 0-0.508-0.106-0.719-0.32z" inkscape:connector-curvature="0"/>
      <path id="path26" style="fill-rule:evenodd;fill:#5e3f2e" d="m19.68 3.201c-1.149 0.504-1.961 0.863-2.442 1.078-0.718 0.375-1.133 0.895-1.238 1.559l-0.039 0.402c-0.242-0.453-0.359-1.16-0.359-2.121-0.641-0.16-1.161-0.238-1.563-0.238-0.746 0-1.332 0.386-1.758 1.16l0.481 0.476c0.105 0.082 0.41 0.243 0.918 0.485l-2.442 0.078c0.137 0.027 0.707 0.199 1.723 0.519 0.984 0.321 1.68 0.493 2.078 0.52l-0.078 0.16c-1.121 0.559-1.84 0.934-2.16 1.121 0.32 0.051 0.801 0.012 1.437-0.121 0.481-0.398 1.137-0.602 1.961-0.602 0.828 0 1.387 0.094 1.68 0.282 0.242 0.187 0.949 0.789 2.121 1.801l0.121 0.402-1.16 0.156c0.613 0.027 1 0.067 1.16 0.121 0.32 0.106 0.68 0.375 1.078 0.801 0.215 0.426 0.387 1.094 0.52 2l0.043-0.039c-0.137-1.895-0.856-3.32-2.16-4.281-1.254-0.907-1.883-2.27-1.883-4.082 0-0.188 0.203-0.438 0.601-0.758 0.426-0.32 0.879-0.613 1.36-0.879zm-19.36 5.199c0-1.254 0.465-2.109 1.399-2.562 0.508-0.239 1.426-0.399 2.761-0.477-0.265-0.027-0.453-0.055-0.558-0.082h-0.402c0.32-0.16 1.093-0.402 2.32-0.719-0.293-0.187-0.785-0.281-1.481-0.281-0.371 0-1 0.066-1.879 0.199-0.933 0.11-1.613 0.242-2.039 0.403h-0.043l-0.117 1.957c0 0.269 0.012 0.789 0.039 1.562zm47.879 29 0.121-0.039c-0.398-0.375-0.851-0.641-1.359-0.801-0.266-0.082-0.508-0.121-0.723-0.121-0.293 0-0.476 0.067-0.558 0.199-0.028 0.055-0.078 0.188-0.16 0.403 0.027 0.16 0.093 0.332 0.199 0.519 0.082 0.106 0.16 0.2 0.242 0.278l2.238-0.438zm5.039-1.039c-0.183 0.078-0.277 0.156-0.277 0.238 0 0.106 0.094 0.2 0.277 0.282 0.16 0.05 0.348 0.078 0.563 0.078 0.211 0 0.398-0.028 0.558-0.078 0.188-0.082 0.282-0.176 0.282-0.282 0-0.082-0.094-0.16-0.282-0.238-0.16-0.082-0.347-0.121-0.558-0.121-0.215 0-0.403 0.039-0.563 0.121zm-11-7.441c-0.105-0.243-0.172-0.403-0.199-0.481s-0.117-0.215-0.277-0.398h-0.024l-1.258 0.16c0 0.16 0.172 0.305 0.52 0.437 0.586 0.243 0.922 0.375 1 0.403l0.238-0.121zm-3.758-10.68c-0.242 0.211-0.386 0.359-0.441 0.437-0.078 0.137-0.117 0.348-0.117 0.641 0 0.375 0.133 0.746 0.398 1.121 0.266 0.399 0.399 0.879 0.399 1.442-0.664 2.105-0.985 3.414-0.957 3.918h0.117l1.562-0.2 0.039-0.039c-0.027-0.347-0.121-0.668-0.281-0.961 0.133 0.348 0.121 0.371-0.039 0.078-0.265-0.503-0.414-0.769-0.441-0.796l0.359 0.437c-0.023-0.32 0.067-0.773 0.281-1.359 0.215-0.586 0.321-0.985 0.321-1.199 0-0.348-0.16-0.762-0.481-1.243-0.32-0.504-0.492-1.011-0.519-1.519l1.082-1.957 0.039-0.242c-0.508 0.507-0.946 0.988-1.321 1.441zm-12.8 7.758c-0.481-0.613-0.813-1.426-1-2.438-0.188-0.906-0.547-1.601-1.078-2.082-0.348-0.32-0.657-0.679-0.922-1.078-0.293-0.668-0.442-1.336-0.442-2l-0.078 0.117c-0.105 0.243-0.16 0.563-0.16 0.961 0 0.614 0.348 1.403 1.039 2.36 0.695 0.988 1.039 1.839 1.039 2.562 0 0.051-0.105 0.266-0.316 0.641-0.242 0.398-0.496 0.758-0.762 1.078l2.039-0.078 0.641-0.043zm-0.719 6.883-1.762 0.199 1.961 1.121 0.36-0.043c-0.532-0.023-0.348-0.277 0.558-0.758-0.051-0.027-0.105-0.066-0.156-0.121 0-0.027-0.016-0.051-0.043-0.078 0-0.027-0.012-0.043-0.039-0.043-0.16-0.078-0.32-0.145-0.481-0.199-0.078-0.028-0.148-0.051-0.199-0.078h-0.199zm-23.082-5.204 1.199-0.078c-0.824-1.359-1.051-3.027-0.68-5l-0.078-0.199c-0.375 0.16-0.558 0.481-0.558 0.961l0.117 2.52v1.796zm40.199-26.398v-0.398c-0.156 0.425-0.586 0.933-1.277 1.519-0.321 0.238-0.348 1.051-0.082 2.438l-0.078 0.562c-0.082-0.32-0.254-0.64-0.52-0.961-0.402-0.558-0.922-0.906-1.562-1.039 0.214-0.187 0.629-0.402 1.242-0.64-0.055-0.133-0.106-0.227-0.16-0.282-0.055-0.051-0.227-0.078-0.52-0.078-0.906 0-1.601 0.371-2.082 1.117-0.48 0.746-0.504 1.52-0.078 2.321-0.082 0-0.176 0.066-0.281 0.199-0.188 0.187-0.305 0.293-0.36 0.32-0.347-0.961-0.718-1.668-1.121-2.121 0.055-0.266 0.199-0.437 0.442-0.519-0.266-0.399-0.852-0.747-1.762-1.04-0.774-0.265-1.399-0.398-1.879-0.398-4.508 0.559-7.121 0.934-7.84 1.117h-0.121c-0.211 0.055-0.398 0.121-0.559 0.203-0.132 0.133-0.175 0.278-0.121 0.438 0 0.16 0.106 0.293 0.321 0.402 0.187 0.078 0.386 0.117 0.601 0.117 0.133-0.027 0.344-0.027 0.641 0 0.316 0 0.57 0.082 0.758 0.243 0.187 0.16 0.265 0.332 0.242 0.519-0.027 0.211-0.254 0.426-0.684 0.641l0.723 1.398c0.211 0.426 0.453 0.414 0.719-0.039 0.215-0.375 0.32-0.668 0.32-0.883 0-0.238-0.105-0.492-0.32-0.758-0.215-0.265-0.321-0.519-0.321-0.761 0-0.641 0.442-1.051 1.321-1.239 0.695-0.16 1.988-0.242 3.879-0.242 0.722 0 1.496 0.496 2.32 1.481 0.773 0.933 1.215 1.722 1.32 2.359 0.082 0.027 0.403 0.203 0.961 0.524 0.559 0.265 0.879 0.437 0.961 0.515-0.535 0.137-0.883 0.188-1.043 0.16l1.203 1.84-1.48 0.047c-0.215 0.184-0.574 0.41-1.082 0.68-0.399 0.238-0.692 0.465-0.879 0.679-0.078 0.161-0.16 0.372-0.238 0.641 0.906-0.723 1.73-1.082 2.476-1.082 0.402 0 0.777 0.121 1.121 0.359l0.723 0.723c-0.375-0.668-0.734-1.055-1.082-1.16l-0.039-0.203c0.16-0.211 0.574-0.332 1.238-0.36l0.359 0.039-0.078-0.078c-0.695-0.746-1.027-1.492-1-2.238l0.36-0.082c0.453 0.082 0.867 0.254 1.242 0.52l0.078-0.282c-0.105-0.238-0.398-0.597-0.879-1.078-0.48-0.453-0.816-0.879-1-1.281l0.559-0.082c0.48 0 0.734-0.078 0.761-0.238-0.187-0.293-0.253-0.559-0.203-0.801 0.055-0.211 0.254-0.547 0.602-1 0.558-0.106 0.988 0.055 1.281 0.48 0.211 0.375 0.371 1.043 0.481 2-0.457 0.426-0.563 0.785-0.321 1.082 0.399 0.504 0.614 0.852 0.641 1.039l0.238-0.48c0.051-0.106 0.172-0.465 0.36-1.082 0.187-0.531 0.347-0.918 0.48-1.16l0.039-0.68 0.039-2.078v-1.879zm-31.039 4.801c-0.398-0.055-0.734-0.133-1-0.242 0.16-0.133 0.402-0.266 0.723-0.399 0.211-0.105 0.449-0.199 0.718-0.281l-2.242-0.481-2.078 0.04c0 0.347 0.051 0.761 0.16 1.242l-0.039 0.32c-0.136-0.133-0.293-0.254-0.48-0.359 0.027 0.054 0.054 0.121 0.078 0.199-0.16 0.398-0.238 0.613-0.238 0.641-0.801 0.214-1.36 0.32-1.68 0.32-0.215 0-0.453-0.094-0.723-0.281-0.293-0.161-0.543-0.239-0.758-0.239-0.425 0-0.839 0.078-1.242 0.239h0.403c0.214 0 0.625 0.16 1.238 0.48 0.613 0.348 1.121 0.535 1.519 0.559-0.023 0.882-0.093 1.547-0.199 2-0.691 0.054-1.398 0.375-2.121 0.961-0.797 0.64-1.25 1.375-1.359 2.199l0.402-0.68c0-0.32 0.266-0.586 0.801-0.801 0.504-0.211 1.117-0.316 1.84-0.316-0.188-0.32-0.11-0.508 0.238-0.563 0.348-0.078 0.68-0.121 1-0.121 0.828 0 1.586 0.043 2.281 0.121 0.211 0.321 0.465 0.668 0.758 1.039l0.242 0.403c-0.562-0.16-1.043-0.281-1.441-0.36 0.508 0.184 0.879 0.547 1.121 1.079 0.133 0.214 0.32 0.988 0.559 2.32l0.359-1.32c0.562-1.012 0.496-1.879-0.199-2.598-0.719-0.723-1.774-0.988-3.16-0.801 0.054-0.746 0.148-1.562 0.281-2.441 1.011 0.453 1.851 0.359 2.519-0.282 0.961-0.984 1.535-1.519 1.719-1.597zm4.602 4.437-0.082-0.199c-1.039-0.933-2.321-1.023-3.84-0.277 1.281 0.023 2.082 0.078 2.402 0.16 0.32 0.078 1 0.359 2.039 0.84l-0.519-0.524zm23.879 3.922c-0.665-0.828-1-1.281-1-1.359 0-0.481 0.093-0.653 0.281-0.52 0.187-0.027 0.492 0.039 0.918 0.2 0.269 0.054 0.254-0.122-0.039-0.52-0.078-0.16-0.36-0.52-0.84-1.082 0.082 0.293 0.148 0.652 0.199 1.082l-1.117 0.16 0.039 0.438c-0.375 0.429-0.723 0.668-1.039 0.722-0.375 0.024-0.695 0.106-0.961 0.239l0.359 0.121c1.36 0.16 2.426 0.332 3.2 0.519zm-6.079-0.801c-0.375-0.961-1-1.437-1.882-1.437-2.106 0-3.493 0.812-4.161 2.437l-0.039 0.243 0.243-0.043c0.398-0.184 0.906-0.571 1.519-1.161 0.399-0.343 0.879-0.519 1.438-0.519 0.586 0 1 0.066 1.242 0.203 0.238 0.133 1 0.598 2.277 1.399l-0.637-1.122zm0.879-6.398c-0.558-0.055-0.972-0.066-1.242-0.039-0.293 0.051-0.652 0.16-1.078 0.316 0.238 0.055 0.707 0.149 1.398 0.282 0.563 0.105 1.055 0.214 1.481 0.32-0.293-0.215-0.813-0.469-1.559-0.758l1-0.121zm-10.48 22.277-0.199-0.199c-0.215-0.586-0.375-0.918-0.481-1-0.215-0.238-0.601-0.359-1.16-0.359-0.266 0-0.441 0.039-0.52 0.121l-0.039 0.16c0.106 0.078 0.332 0.305 0.68 0.68 0.399 0.32 0.973 0.519 1.719 0.597zm-6.32-3.078c-0.239 0.028-0.415 0.078-0.52 0.16l-0.078 0.121c0 0.161 0.437 0.239 1.316 0.239-0.105-0.16-0.183-0.282-0.238-0.36-0.078-0.082-0.238-0.132-0.48-0.16zm-7.641 2.719-0.957-0.598c-0.402-0.133-0.856-0.215-1.363-0.242-0.504 0-0.852 0.027-1.039 0.082l0.121 0.399c0.347 0.402 0.773 0.601 1.281 0.601 0.453 0 1.105-0.082 1.957-0.242zm1.16-2.32v-0.02c0-0.844-0.078-1.621-0.238-2.34l-0.082 0.242c-0.399 1.145-0.625 1.918-0.68 2.321l1-0.203zm-4.078-15.321c-0.508-0.078-0.922-0.117-1.242-0.117-0.504 0.16-0.864 0.266-1.078 0.32v-0.16c-0.243 0.293-0.414 0.598-0.52 0.918v0.36c0.453-0.344 0.879-0.703 1.277-1.078 0.297-0.161 0.707-0.243 1.243-0.243h0.32zm18.078-5.679c-0.398-0.399-0.691-0.758-0.879-1.078l-2.039 0.878-0.359 0.2c0.343 0.054 0.918 0.054 1.718 0 0.852-0.024 1.375-0.024 1.559 0zm6.68 6.722 0.441 0.68c-0.348-0.027-0.695-0.066-1.039-0.121-0.695-0.16-1.043-0.305-1.043-0.442 0.215-0.132 0.496-0.199 0.844-0.199 0.344-0.027 0.613 0 0.797 0.082zm-4.199-4.082 0.8 0.922 0.641 0.277c-0.055-0.531-0.133-1.011-0.242-1.437l-0.719-0.082c-0.215 0-0.348 0.055-0.398 0.16l-0.082 0.16zm-10.079 2.121c-0.136 0-0.269-0.039-0.402-0.121-0.051-0.027-0.094-0.066-0.117-0.117 0.051 0.211 0.051 0.359 0 0.438-0.055 0.109-0.094 0.293-0.121 0.562l0.64-0.762zm11.68-3.839c0.211 0.214 0.453 0.32 0.719 0.32 0.293 0 0.547-0.11 0.762-0.32 0.21-0.215 0.32-0.469 0.32-0.762 0-0.321-0.11-0.586-0.32-0.797-0.215-0.215-0.469-0.32-0.762-0.32-0.266 0-0.508 0.105-0.719 0.32-0.215 0.211-0.32 0.476-0.32 0.797 0 0.293 0.105 0.547 0.32 0.762z" inkscape:connector-curvature="0"/>
      <path id="path28" style="fill-rule:evenodd;fill:#a16350" d="m2.559 29.72c1.386 0.852 5.972 3.04 13.761 6.559l1.078 0.602 0.321 0.199-0.16-0.442v-0.039c-0.028-0.347-0.184-0.574-0.481-0.679 1.016 0.215 2.801 0.375 5.363 0.48l1.239-1.121c-2.852-0.187-5.625-0.281-8.321-0.281-0.906 0-2.437-0.438-4.597-1.321-2.883-1.171-5.508-2.718-7.883-4.636-0.106 0.183-0.211 0.41-0.32 0.679zm15.839 7.957 0.563 0.364 0.039 0.078c0.055 0 0.16-0.027 0.32-0.078 0.051 0 0.078 0.133 0.078 0.398 0.008-0.265 0.606-0.387 1.801-0.359 0.856 0.027 2.895 0.121 6.121 0.281l5-0.043c-1.359-0.453-3.761-0.691-7.199-0.719-3.601 0.055-5.84 0.078-6.723 0.078zm24.563 0.403c-1.066-0.613-1.723-0.973-1.961-1.082-0.32-0.106-1.652-0.531-4-1.278 0.641-0.32 1.094-0.574 1.359-0.761 0.321-0.239 0.696-0.653 1.121-1.239-0.773-0.535-2.066-0.855-3.878-0.96h-3.161c-0.8 0-1.761 0.105-2.882 0.32 0.429 0.347 0.773 0.574 1.043 0.68 0.718 0.292 1.703 0.453 2.957 0.48-0.028 0.426-0.254 0.641-0.68 0.641-0.266 0-0.387 0.027-0.359 0.078 0.054 0.133 0.066 0.199 0.039 0.199l-0.079 0.281c0.879 0 1.985 0.215 3.321 0.641 1.304 0.426 2.172 0.84 2.597 1.238 0 0.082-0.238 0.121-0.718 0.121l-0.078 0.238c0.078 0.215 0.16 0.348 0.238 0.403l5.121 0.039v-0.039zm3.641-5.039c0.16 0.238 0.757 0.453 1.796 0.636l0.723 0.043c-0.48-0.613-0.734-0.949-0.762-1-0.187-0.16-0.425-0.242-0.718-0.242-0.508 0-0.829 0.106-0.961 0.321l-0.078 0.242zm-12.524-4.043 1.281-0.16c-0.027-0.133-0.16-0.184-0.398-0.161-0.188 0-0.387 0.055-0.602 0.161l-0.281 0.16zm-19.238 3.601 0.281-0.199c-0.668-0.48-1.309-0.723-1.922-0.723-0.293 0-0.48 0.055-0.558 0.161-0.028 0-0.082 0.082-0.161 0.242 0.454 0.265 0.758 0.414 0.918 0.437 0.508 0.137 0.989 0.16 1.442 0.082zm0.281-3.922v-1.117h-2.961v1.117h2.961zm5.641 2.883 2.117-0.64c-0.531-1.016-1.426-1.641-2.68-1.879-0.426-0.11-1.504-0.16-3.238-0.16-0.188 0-1.52 0.211-4 0.636 0.801 0.403 1.824 0.922 3.078 1.563 1.387 0.426 2.801 0.586 4.242 0.48h0.481zm6.558 5.239c0-0.133-0.121-0.254-0.359-0.36-0.188-0.105-0.43-0.16-0.723-0.16-0.238 0-0.465 0.055-0.679 0.16-0.211 0.106-0.321 0.227-0.321 0.36 0 0.132 0.11 0.253 0.321 0.359 0.214 0.109 0.441 0.16 0.679 0.16 0.297 0 0.535-0.051 0.723-0.16 0.238-0.106 0.359-0.227 0.359-0.359zm2.961-8.161c-0.75 0-1.375 0.106-1.883 0.321-0.531 0.215-0.796 0.468-0.796 0.761 0 0.266 0.265 0.52 0.796 0.758 0.508 0.215 1.137 0.321 1.883 0.321s1.387-0.106 1.918-0.321c0.535-0.238 0.801-0.492 0.801-0.758 0-0.293-0.266-0.546-0.801-0.761-0.531-0.211-1.172-0.321-1.918-0.321zm-19.883 2.039-0.039 0.282v0.242l0.68-0.481-0.641-0.043z" inkscape:connector-curvature="0"/>
    </g>
  </g>
<metadata><rdf:RDF><cc:Work><dc:format>image/svg+xml</dc:format><dc:type rdf:resource="http://purl.org/dc/dcmitype/StillImage"/><cc:license rdf:resource="http://creativecommons.org/licenses/publicdomain/"/><dc:publisher><cc:Agent rdf:about="http://openclipart.org/"><dc:title>Openclipart</dc:title></cc:Agent></dc:publisher></cc:Work><cc:License rdf:about="http://creativecommons.org/licenses/publicdomain/"><cc:permits rdf:resource="http://creativecommons.org/ns#Reproduction"/><cc:permits rdf:resource="http://creativecommons.org/ns#Distribution"/><cc:permits rdf:resource="http://creativecommons.org/ns#DerivativeWorks"/></cc:License></rdf:RDF></metadata></svg>
