<?xml version="1.0" encoding="UTF-8"?>
<!DOCTYPE svg PUBLIC "-//W3C//DTD SVG 1.1//EN" "http://www.w3.org/Graphics/SVG/1.1/DTD/svg11.dtd">
<svg version="1.1" xmlns="http://www.w3.org/2000/svg" xmlns:xlink="http://www.w3.org/1999/xlink" x="0" y="0" width="428" height="545" viewBox="0, 0, 428, 545">
  <g id="Layer_1">
    <path d="M213.871,541.873 C330.565,541.873 425.743,502.112 425.743,453.363 C425.743,404.613 330.565,364.852 213.871,364.852 C97.178,364.852 2,404.613 2,453.363 C2,502.112 97.178,541.873 213.871,541.873" fill="#9FB93B"/>
    <path d="M168.5,120.792 C227.124,50.02 291.989,0.635 372.389,4.478 C382.513,4.963 388.368,14.883 385.637,26.916 C385.137,29.115 384.637,31.315 384.139,33.516 C381.655,44.449 376.002,53.845 367.476,61.2 C358.948,68.559 349.923,71.829 340.876,70.841 C316.045,68.131 292.322,77.543 269.109,92.525 C260.632,97.998 254.283,105.636 250.03,115.477 C246.018,124.769 240.04,132.963 232.182,139.93 C221.112,149.739 209.393,154.379 197.368,153.713 C185.008,153.027 172.563,152.666 159.111,156.083 C163.846,138.29 163.768,138.584 168.5,120.792" fill="#CF8D4A"/>
    <path d="M386.289,20.253 C386.369,22.362 386.163,24.6 385.637,26.916 C385.137,29.115 384.637,31.315 384.139,33.516 C381.655,44.449 376.002,53.845 367.476,61.2 C358.948,68.559 349.923,71.829 340.876,70.841 C316.045,68.131 292.322,77.543 269.109,92.525 C260.631,97.998 254.283,105.636 250.03,115.477 C246.018,124.769 240.04,132.963 232.182,139.93 C221.112,149.739 209.393,154.379 197.368,153.713 C190.839,153.35 184.287,153.079 177.577,153.407 C175.174,138.315 172.829,104.611 186.866,107.699 C203.234,111.298 210.129,141.065 227.941,115.154 C248.933,84.619 253.802,73.438 292.213,63.572 C320.706,57.219 334.916,55.314 361.689,41.527 C375.694,34.059 381.599,27.665 386.289,20.253" fill="#BB7A3E"/>
    <path d="M245.619,498.759 C206.605,495.12 224.491,525.554 178.393,513.167 C157.965,507.384 158.55,508.181 137.788,509.448 C126.776,510.12 114.808,506.266 104.257,503.269 C89.688,499.061 71.931,505.371 59.803,489.554 C50.326,477.193 57.545,466.479 41.953,446.686 C36.088,439.239 33.529,433.998 33.814,428.127 L33.814,262.313 L315.06,265.502 L315.06,431.333 C315.081,431.914 315.081,432.487 315.06,433.06 L315.06,433.062 C314.97,435.404 314.523,437.729 313.794,440.55 C309.023,455.374 295.496,461.731 288.168,475.948 C281.36,489.162 279.616,496.832 262.711,498.943 C257.003,499.656 251.324,499.228 245.619,498.759" fill="#6B4325"/>
    <path d="M245.619,498.759 C206.605,495.12 224.491,525.554 178.393,513.167 C157.965,507.384 158.55,508.181 137.788,509.448 C126.776,510.12 114.808,506.266 104.257,503.269 C89.688,499.061 71.931,505.371 59.803,489.554 C55.858,484.411 54.807,479.55 53.798,474.204 C74.091,484.216 86.939,474.137 111.166,466.973 C129.447,461.565 148.936,466.185 167.058,470.227 C184.842,474.367 193.191,479.534 210.043,469.541 C219.974,462.701 232.539,453.838 237.609,442.649 C240.064,436.312 240.577,430.402 240.92,423.659 C241.834,405.763 240.298,392.671 242.614,374.136 C247.483,335.19 224.728,351.201 202.58,352.727 C180.885,354.221 173.529,339.386 191.163,327.337 C207.216,316.369 231.761,307.714 251.186,304.976 C260.642,303.636 277.521,302.325 284.254,295.283 C289.843,289.437 291.725,277.662 293.495,265.257 L315.06,265.502 L315.06,431.333 C315.081,431.914 315.081,432.487 315.06,433.06 L315.06,433.062 C314.97,435.404 314.523,437.729 313.794,440.55 C309.023,455.374 295.496,461.731 288.168,475.948 C281.36,489.162 279.616,496.832 262.711,498.943 C257.003,499.656 251.324,499.228 245.619,498.759" fill="#5B3820"/>
    <path d="M245.619,498.759 C206.605,495.12 224.491,525.554 178.393,513.167 C157.965,507.384 158.55,508.181 137.788,509.448 C133.099,509.733 128.236,509.199 123.385,508.26 C144.158,501.557 152.663,502.156 175.41,503.066 C186.728,503.32 195.709,503.206 205.467,496.957 C222.844,485.828 219.822,484.405 241.754,478.193 C274.796,468.838 277.531,460.673 288.378,428.291 C297.904,400.052 288.169,370.889 298.737,349.744 C310.242,329.644 312.575,327.432 313.308,304.129 C313.481,298.573 313.808,291.575 315.06,284.709 L315.06,431.333 C315.081,431.914 315.081,432.487 315.06,433.06 L315.06,433.062 C314.97,435.404 314.523,437.729 313.794,440.55 C309.023,455.374 295.496,461.731 288.168,475.948 C281.36,489.162 279.616,496.832 262.711,498.943 C257.003,499.656 251.324,499.228 245.619,498.759" fill="#492E1D"/>
    <path d="M245.619,331.199 C206.605,327.559 224.491,357.995 178.393,345.606 C157.965,339.823 158.55,340.62 137.788,341.888 C126.776,342.56 114.808,338.706 104.257,335.709 C89.688,331.501 71.931,337.812 59.803,321.993 C50.326,309.635 57.545,298.919 41.953,279.126 C31.529,265.893 31.55,259.627 39.414,244.398 C44.241,235.051 50.477,227.936 58.108,220.811 C65.334,214.281 71.172,210.985 80.28,207.651 C94.276,202.876 102.902,200.913 116.982,194.589 C138.856,184.764 160.893,190.229 184.216,189.779 L186.996,189.727 C200.048,189.491 211.938,191.272 225.073,191.736 C262.195,193.043 262.117,212.202 289.131,228.477 C301.834,236.13 310.442,242.464 314.19,257.969 C315.578,263.708 315.249,267.367 313.794,272.988 C309.023,287.813 295.496,294.171 288.168,308.39 C281.36,321.601 279.616,329.271 262.711,331.383 C257.003,332.097 251.324,331.67 245.619,331.199" fill="#8F592F"/>
    <path d="M217.309,325.164 C201.539,336.908 202.67,339.565 181.066,333.335 C160.496,327.073 159.149,328.399 138.628,329.032 C128.43,329.347 119.64,326.012 110.002,322.933 C94.129,317.793 78.127,329.171 72.191,302.753 C69.328,289.998 68.282,285.657 63.536,273.366 C58.365,259.975 59.381,257.728 66.27,245.456 C78.227,224.895 98.073,221.827 117.813,212.073 C142.076,199.68 153.208,206.068 178.69,205.998 L184.486,205.982 C196.705,205.782 208.083,206.895 220.325,207.251 C252.311,208.176 252.385,228.376 275.681,245.096 C290.648,255.84 295.035,259.772 284.706,278.102 C281.52,283.759 279.23,287.761 276.642,293.824 C265.468,322.241 266.404,314.999 239.641,317.032 C230.709,317.711 224.611,320.007 217.309,325.164" fill="#D8A05E"/>
    <path d="M217.309,325.164 C201.539,336.908 202.67,339.565 181.066,333.335 C160.496,327.073 159.149,328.399 138.628,329.032 C128.43,329.347 119.64,326.012 110.002,322.933 C94.129,317.793 78.127,329.171 72.191,302.753 C69.328,289.998 68.282,285.657 63.536,273.366 C61.647,268.471 60.583,265.065 60.331,262.113 C60.689,258.172 62.684,254.5 66.27,248.111 C78.227,227.552 98.073,224.482 117.813,214.727 C142.076,202.336 153.208,208.724 178.69,208.654 L184.486,208.637 C196.705,208.436 208.083,209.551 220.325,209.905 C252.311,210.833 252.385,231.032 275.681,247.752 C284.484,254.07 289.625,258.035 290.267,263.959 C289.9,267.621 288.096,272.087 284.706,278.102 C281.52,283.759 279.23,287.761 276.642,293.824 C265.468,322.241 266.404,314.999 239.641,317.032 C230.709,317.711 224.611,320.007 217.309,325.164" fill="#F1B36E"/>
    <path d="M217.309,325.164 C201.539,336.908 202.67,339.565 181.066,333.335 C170.438,330.1 164.94,328.89 159.278,328.564 C141.424,313.935 130.804,295.638 130.804,275.78 C130.804,248.733 150.494,224.574 181.36,208.645 L184.486,208.637 C196.705,208.436 208.083,209.551 220.325,209.905 C252.311,210.833 252.385,231.032 275.681,247.752 C284.484,254.07 289.625,258.035 290.267,263.959 C289.9,267.621 288.096,272.087 284.706,278.102 C281.52,283.759 279.23,287.761 276.642,293.824 C265.468,322.241 266.404,314.999 239.641,317.032 C230.709,317.711 224.611,320.007 217.309,325.164" fill="#F5C184"/>
    <path d="M280.238,286.215 C279.313,287.991 278.424,289.809 277.512,291.837 L234.383,276.814 L280.238,286.215 z M248.354,220.061 C249.29,220.911 250.195,221.799 251.081,222.719 L222.213,241.411 L248.354,220.061 z M167.969,208.326 C169.412,208.412 170.901,208.487 172.443,208.545 L170.743,233.542 L167.969,208.326 z M93.576,225.228 C95.383,224.406 97.221,223.615 99.085,222.836 L112.404,236.155 L93.576,225.228 z M71.232,298.51 C70.685,296.11 70.192,294.019 69.696,292.065 L114.894,281.794 L71.232,298.51 z M153.136,328.496 C151.413,328.535 149.543,328.61 147.429,328.698 L150.292,305.33 L153.136,328.496" fill="#F1B36E"/>
    <path d="M244.403,227.526 C226.691,217.076 202.186,210.612 175.086,210.612 C147.987,210.612 123.481,217.076 105.77,227.526 C88.304,237.831 77.499,251.984 77.499,267.546 C77.499,283.104 88.304,297.26 105.77,307.564 C123.481,318.015 147.987,324.478 175.086,324.478 C202.186,324.478 226.691,318.015 244.403,307.564 C261.869,297.26 272.674,283.104 272.674,267.546 C272.674,251.984 261.869,237.831 244.403,227.526 z M233.377,231.614 C218.209,222.664 197.219,217.128 174,217.128 C150.782,217.128 129.793,222.664 114.623,231.614 C99.701,240.417 90.47,252.497 90.47,265.769 C90.47,279.039 99.701,291.118 114.623,299.922 C129.791,308.872 150.782,314.408 174,314.408 C197.219,314.408 218.209,308.872 233.377,299.922 C248.299,291.118 257.53,279.039 257.53,265.769 C257.53,252.497 248.299,240.417 233.377,231.614 z M174,213.993 C150.219,213.993 128.66,219.696 113.029,228.918 C97.154,238.284 87.335,251.309 87.335,265.769 C87.335,280.227 97.154,293.252 113.029,302.619 C128.66,311.84 150.221,317.543 174,317.543 C197.78,317.543 219.34,311.84 234.971,302.619 C250.846,293.252 260.665,280.227 260.665,265.769 C260.665,251.309 250.846,238.284 234.971,228.918 C219.34,219.696 197.78,213.993 174,213.993 z M222.351,235.7 C209.726,228.252 192.25,223.645 172.914,223.645 C153.578,223.645 136.101,228.252 123.477,235.701 C111.1,243.004 103.441,253.012 103.441,263.99 C103.441,274.971 111.1,284.977 123.477,292.281 C136.103,299.728 153.578,304.336 172.914,304.336 C192.25,304.336 209.726,299.728 222.351,292.281 C234.729,284.977 242.387,274.971 242.387,263.99 C242.387,253.012 234.729,243.004 222.351,235.7 z M172.914,220.509 C153.015,220.509 134.97,225.284 121.884,233.006 C108.553,240.872 100.307,251.822 100.307,263.99 C100.307,276.161 108.553,287.109 121.884,294.977 C134.97,302.696 153.015,307.473 172.914,307.473 C192.813,307.473 210.857,302.696 223.944,294.977 C237.275,287.11 245.521,276.161 245.521,263.99 C245.521,251.822 237.275,240.872 223.944,233.006 C210.857,225.284 192.813,220.509 172.914,220.509 z M211.324,239.789 C201.243,233.842 187.281,230.162 171.828,230.162 C156.374,230.162 142.412,233.842 132.331,239.789 C122.497,245.592 116.414,253.524 116.414,262.213 C116.414,270.902 122.497,278.838 132.331,284.639 C142.412,290.587 156.374,294.267 171.828,294.267 C187.281,294.267 201.243,290.587 211.324,284.639 C221.158,278.838 227.243,270.902 227.243,262.213 C227.243,253.524 221.158,245.592 211.324,239.789 z M171.828,227.026 C155.81,227.026 141.281,230.874 130.739,237.093 C119.95,243.458 113.277,252.336 113.277,262.213 C113.277,272.093 119.95,280.97 130.739,287.334 C141.281,293.555 155.81,297.401 171.828,297.401 C187.846,297.401 202.374,293.555 212.918,287.334 C223.705,280.97 230.378,272.093 230.378,262.213 C230.378,252.336 223.705,243.458 212.918,237.093 C202.374,230.874 187.846,227.026 171.828,227.026 z M200.298,243.877 C192.763,239.43 182.313,236.68 170.743,236.68 C159.169,236.68 148.722,239.43 141.185,243.877 C133.894,248.177 129.385,254.039 129.385,260.436 C129.385,266.834 133.896,272.696 141.185,276.996 C148.722,281.443 159.169,284.193 170.743,284.193 C182.313,284.193 192.763,281.443 200.298,276.996 C207.589,272.694 212.1,266.834 212.1,260.436 C212.1,254.039 207.589,248.177 200.298,243.877 z M170.743,233.542 C158.605,233.542 147.591,236.462 139.592,241.181 C131.349,246.044 126.249,252.849 126.249,260.436 C126.249,268.024 131.349,274.828 139.593,279.693 C147.59,284.411 158.605,287.331 170.743,287.331 C182.877,287.331 193.894,284.411 201.892,279.693 C210.135,274.828 215.234,268.024 215.234,260.436 C215.234,252.849 210.136,246.045 201.892,241.181 C193.894,236.462 182.877,233.542 170.743,233.542 z M189.271,247.964 C184.279,245.018 177.346,243.195 169.655,243.195 C161.966,243.195 155.032,245.018 150.039,247.964 C145.293,250.763 142.355,254.552 142.355,258.66 C142.355,262.769 145.293,266.555 150.039,269.355 C155.032,272.3 161.966,274.124 169.655,274.124 C184.732,274.124 196.956,267.2 196.956,258.66 C196.956,254.552 194.019,250.763 189.271,247.964 z M169.655,240.06 C161.402,240.06 153.901,242.051 148.447,245.269 C142.746,248.631 139.22,253.362 139.22,258.66 C139.22,263.957 142.746,268.686 148.447,272.051 C153.902,275.268 161.402,277.259 169.655,277.259 C186.466,277.259 200.091,268.932 200.091,258.66 C200.091,253.362 196.565,248.631 190.865,245.269 C185.411,242.051 177.908,240.06 169.655,240.06 z M178.246,252.051 C175.797,250.607 172.378,249.712 168.57,249.712 C164.762,249.712 161.342,250.607 158.893,252.051 C156.689,253.351 155.327,255.064 155.327,256.883 C155.327,258.701 156.689,260.414 158.893,261.713 C161.342,263.158 164.762,264.051 168.57,264.051 C172.378,264.051 175.797,263.158 178.246,261.713 C180.449,260.414 181.813,258.701 181.813,256.883 C181.813,255.064 180.449,253.351 178.246,252.051 z M168.57,246.577 C164.197,246.577 160.212,247.639 157.301,249.355 C154.145,251.219 152.191,253.875 152.191,256.883 C152.191,259.891 154.145,262.547 157.301,264.408 C160.212,266.126 164.197,267.188 168.57,267.188 C172.941,267.188 176.928,266.126 179.839,264.408 C182.994,262.547 184.947,259.891 184.947,256.883 C184.947,253.875 182.994,251.219 179.839,249.355 C176.928,247.639 172.941,246.577 168.57,246.577 z M175.086,207.476 C202.75,207.476 227.822,214.108 245.997,224.831 C264.416,235.699 275.811,250.795 275.811,267.546 C275.811,284.294 264.416,299.392 245.997,310.26 C227.822,320.982 202.75,327.614 175.086,327.614 C147.423,327.614 122.351,320.982 104.176,310.26 C85.756,299.392 74.362,284.294 74.362,267.546 C74.362,250.795 85.756,235.699 104.176,224.831 C122.351,214.108 147.423,207.476 175.086,207.476" fill="#CD9450"/>
    <path d="M189.271,247.964 C184.279,245.018 177.346,243.195 169.655,243.195 C161.966,243.195 155.032,245.018 150.039,247.964 C145.293,250.763 142.355,254.552 142.355,258.66 C142.355,262.769 145.293,266.555 150.039,269.355 C155.032,272.3 161.966,274.124 169.655,274.124 C184.732,274.124 196.956,267.2 196.956,258.66 C196.956,254.552 194.019,250.763 189.271,247.964 z M169.655,240.06 C161.402,240.06 153.901,242.051 148.447,245.269 C142.746,248.631 139.22,253.362 139.22,258.66 C139.22,263.957 142.746,268.686 148.447,272.051 C153.902,275.268 161.402,277.259 169.655,277.259 C186.466,277.259 200.091,268.932 200.091,258.66 C200.091,253.362 196.565,248.631 190.865,245.269 C185.411,242.051 177.908,240.06 169.655,240.06 z M178.246,252.051 C175.797,250.607 172.378,249.712 168.57,249.712 C164.762,249.712 161.342,250.607 158.893,252.051 C156.689,253.351 155.327,255.064 155.327,256.883 C155.327,258.701 156.689,260.414 158.893,261.713 C161.342,263.158 164.762,264.051 168.57,264.051 C172.378,264.051 175.797,263.158 178.246,261.713 C180.449,260.414 181.813,258.701 181.813,256.883 C181.813,255.064 180.449,253.351 178.246,252.051 z M168.57,246.577 C164.197,246.577 160.212,247.639 157.301,249.355 C154.145,251.219 152.191,253.875 152.191,256.883 C152.191,259.891 154.145,262.547 157.301,264.408 C160.212,266.126 164.197,267.188 168.57,267.188 C172.941,267.188 176.928,266.126 179.839,264.408 C182.994,262.547 184.947,259.891 184.947,256.883 C184.947,253.875 182.994,251.219 179.839,249.355 C176.928,247.639 172.941,246.577 168.57,246.577 z M143.798,238.993 C142.427,240.833 141.153,242.707 139.986,244.614 C140.377,244.364 140.775,244.117 141.185,243.877 C148.722,239.43 159.169,236.68 170.743,236.68 C182.313,236.68 192.763,239.43 200.298,243.877 C207.589,248.177 212.1,254.039 212.1,260.436 C212.1,266.834 207.589,272.694 200.298,276.996 C192.763,281.443 182.313,284.193 170.743,284.193 C159.169,284.193 148.722,281.443 141.185,276.996 C136.782,274.4 133.396,271.234 131.401,267.725 C131.17,269.305 131.007,270.896 130.913,272.5 C133.132,275.189 136.076,277.619 139.593,279.693 C147.59,284.411 158.605,287.331 170.743,287.331 C182.877,287.331 193.894,284.411 201.892,279.693 C210.135,274.828 215.234,268.024 215.234,260.436 C215.234,252.849 210.136,246.045 201.892,241.181 C193.894,236.462 182.877,233.542 170.743,233.542 C160.612,233.542 151.264,235.576 143.798,238.993 z M152.605,228.955 C151.214,230.318 149.889,231.707 148.621,233.12 C155.682,231.22 163.54,230.162 171.828,230.162 C187.281,230.162 201.243,233.842 211.324,239.789 C221.158,245.592 227.243,253.524 227.243,262.213 C227.243,270.902 221.158,278.838 211.324,284.639 C201.243,290.587 187.281,294.267 171.828,294.267 C156.374,294.267 142.412,290.587 132.331,284.639 C132.029,284.462 131.733,284.281 131.439,284.1 C131.648,285.467 131.904,286.825 132.213,288.174 C142.617,293.897 156.545,297.401 171.828,297.401 C187.846,297.401 202.374,293.555 212.918,287.334 C223.705,280.97 230.378,272.093 230.378,262.213 C230.378,252.336 223.705,243.458 212.918,237.093 C202.374,230.874 187.846,227.026 171.828,227.026 C165.096,227.026 158.626,227.706 152.605,228.955 z M161.768,221.018 C160.221,222.21 158.727,223.432 157.28,224.677 C162.304,224.003 167.536,223.645 172.914,223.645 C192.25,223.645 209.726,228.252 222.351,235.7 C234.729,243.004 242.387,253.012 242.387,263.99 C242.387,274.971 234.729,284.977 222.351,292.281 C209.726,299.728 192.25,304.336 172.914,304.336 C159.068,304.336 146.175,301.974 135.336,297.896 C135.894,299.233 136.5,300.559 137.157,301.87 C147.708,305.434 159.915,307.473 172.914,307.473 C192.813,307.473 210.857,302.696 223.944,294.977 C237.275,287.11 245.521,276.161 245.521,263.99 C245.521,251.822 237.275,240.872 223.944,233.006 C210.857,225.284 192.813,220.509 172.914,220.509 C169.124,220.509 165.401,220.684 161.768,221.018 z M171.898,214.008 C170.17,215.081 168.484,216.179 166.848,217.307 C169.204,217.188 171.59,217.128 174,217.128 C197.219,217.128 218.209,222.664 233.377,231.614 C248.299,240.417 257.53,252.497 257.53,265.769 C257.53,279.039 248.299,291.118 233.377,299.922 C218.209,308.872 197.219,314.408 174,314.408 C162.866,314.408 152.246,313.134 142.533,310.821 C143.448,312.124 144.412,313.407 145.423,314.674 C154.37,316.532 163.988,317.543 174,317.543 C197.78,317.543 219.34,311.84 234.971,302.619 C250.846,293.252 260.665,280.227 260.665,265.769 C260.665,251.309 250.846,238.284 234.971,228.918 C219.34,219.696 197.78,213.993 174,213.993 C173.297,213.993 172.596,213.999 171.898,214.008 z M183.285,207.672 C207.685,208.842 229.636,215.179 245.997,224.831 C264.416,235.699 275.811,250.795 275.811,267.546 C275.811,284.294 264.416,299.392 245.997,310.26 C227.822,320.982 202.75,327.614 175.086,327.614 C168.916,327.614 162.874,327.285 157.011,326.652 C155.637,325.461 154.311,324.248 153.033,323.014 C160.12,323.972 167.502,324.478 175.086,324.478 C202.186,324.478 226.691,318.015 244.403,307.564 C261.869,297.26 272.674,283.104 272.674,267.546 C272.674,251.984 261.869,237.831 244.403,227.526 C227.253,217.407 203.732,211.027 177.658,210.631 C179.492,209.615 181.366,208.627 183.285,207.672" fill="#E2A760"/>
    <path d="M95.435,219.908 L110.969,235.443 L89.119,222.764 C91.182,221.764 93.291,220.824 95.435,219.908 z M172.569,204.489 L170.645,232.769 L167.506,204.24 C169.134,204.341 170.818,204.428 172.569,204.489 z M254.408,220.675 L223.296,240.82 L251.581,217.722 C252.546,218.669 253.482,219.655 254.408,220.675 z M279.865,292.403 L235.746,277.037 L282.654,286.651 C281.708,288.47 280.798,290.328 279.865,292.403 z M146.796,330.111 L149.728,306.206 L152.635,329.903 C150.871,329.944 148.961,330.02 146.796,330.111 z M67.279,292.637 L113.516,282.129 L68.852,299.227 C68.291,296.774 67.786,294.635 67.279,292.637" fill="#8F592F"/>
    <path d="M43.396,340.44 C52.564,325.425 71.675,348.13 76.078,358.177 C85.246,380.48 86.74,424.12 69.289,442.65 C57.924,454.72 45.189,448.959 42.167,432.573 C39.271,416.876 37.251,354.391 42.726,341.8 L43.396,340.44" fill="#8F592F"/>
    <path d="M246.955,177.924 C217.933,180.375 211.467,165.775 197.51,125.977 C195.344,111.823 177.568,96.858 163.737,105.711 L107.619,141.626 C100.117,146.428 97.693,156.239 102.09,163.981 C114.518,185.862 143.693,239.433 147.093,283.96 L158.688,291.554 L201.461,266.779 C219.271,245.42 234.439,215.811 246.955,177.924" fill="#2E2F2C"/>
    <path d="M105.864,160.046 C113.011,156.081 124.333,162.829 131.149,175.119 C137.967,187.408 137.698,200.586 130.552,204.55 C123.405,208.516 112.083,201.767 105.265,189.477 C98.448,177.187 98.716,164.011 105.864,160.046" fill="#CF8D4A"/>
    <path d="M246.955,177.924 C217.933,180.375 211.467,165.775 197.51,125.977 C195.688,114.066 182.813,101.583 170.534,103.2 C176.771,107.997 182.231,114.768 182.014,127.201 C181.392,154.699 178.855,164.545 158.397,182.972 C121.057,216.601 171.459,209.791 192.787,205.148 C231.941,196.622 224.894,225.538 213.683,250.195 C226.314,230.912 237.406,206.828 246.955,177.924" fill="#0B0B09"/>
    <path d="M246.955,177.924 C241.178,178.41 236.296,178.221 232.069,177.293 C215.752,223.521 194.437,264.754 158.688,291.554 L201.461,266.779 C219.271,245.42 234.439,215.811 246.955,177.924" fill="#C8C7C2"/>
    <path d="M246.955,177.924 C241.178,178.41 236.296,178.221 232.069,177.293 C228.211,188.223 224.074,198.873 219.533,209.118 C226.084,217.664 220.7,234.764 213.683,250.195 C226.314,230.912 237.406,206.828 246.955,177.924" fill="#ADADAA"/>
  </g>
</svg>
